ply
format ascii 1.0
comment Created by Blender 2.59 (sub 0) - www.blender.org, source file: ''
element vertex 537
property float x
property float y
property float z
property float nx
property float ny
property float nz
element face 768
property list uchar uint vertex_indices
end_header
0.500000 1.000000 0.250000 0.000000 1.000000 0.000000 
0.500000 1.000000 0.000000 0.000000 1.000000 0.000000 
0.250000 1.000000 0.000000 0.000000 1.000000 0.000000 
0.250000 1.000000 0.250000 0.000000 1.000000 0.000000 
0.500000 1.000000 0.500000 0.000000 1.000000 0.000000 
0.000000 1.000000 0.000000 0.000000 1.000000 0.000000 
0.750000 1.000000 0.500000 0.000000 1.000000 0.000000 
0.750000 1.000000 0.250000 0.000000 1.000000 -0.000000 
1.000000 1.000000 0.500000 0.000000 1.000000 0.000000 
1.000000 1.000000 0.250000 0.000000 1.000000 0.000000 
1.000000 1.000000 0.000000 0.000000 1.000000 0.000000 
0.750000 1.000000 0.000000 0.000000 1.000000 0.000000 
1.000000 1.000000 0.750000 0.000000 1.000000 0.000000 
0.750000 1.000000 0.750000 0.000000 1.000000 0.000000 
1.000000 0.999999 1.000000 -0.000000 1.000000 0.000000 
0.500000 1.000000 -0.250000 0.000000 1.000000 0.000000 
0.750000 1.000000 -0.250000 0.000000 1.000000 -0.000000 
0.500000 1.000000 -0.500000 0.000000 1.000000 0.000000 
0.250000 1.000000 -0.500000 0.000000 1.000000 0.000000 
0.250000 1.000000 -0.250000 0.000000 1.000000 0.000000 
0.000000 1.000000 -0.500000 0.000000 1.000000 0.000000 
0.000000 1.000000 -0.250000 0.000000 1.000000 0.000000 
0.000000 1.000000 -0.750000 0.000000 1.000000 -0.000000 
0.250000 1.000000 -0.750000 -0.000000 1.000000 0.000000 
0.000000 1.000000 -1.000000 0.000000 1.000000 0.000000 
-0.500000 1.000000 -0.750000 0.000000 1.000000 0.000000 
-0.500000 1.000000 -1.000000 0.000000 1.000000 0.000000 
-0.750000 1.000000 -1.000000 0.000000 1.000000 0.000000 
-0.750000 1.000000 -0.750000 0.000000 1.000000 0.000000 
-0.500000 1.000000 -0.500000 -0.000000 1.000000 0.000000 
-1.000000 1.000000 -1.000000 0.000000 1.000000 -0.000000 
-0.250000 1.000000 -0.500000 0.000000 1.000000 0.000000 
-0.250000 1.000000 -0.750000 0.000000 1.000000 0.000000 
-0.250000 1.000000 -1.000000 0.000000 1.000000 0.000000 
-0.250000 1.000000 -0.250000 0.000000 1.000000 -0.000000 
0.500000 1.000000 -0.750000 -0.000000 1.000000 0.000000 
0.500000 1.000000 -1.000000 -0.000000 1.000000 0.000000 
0.250000 1.000000 -1.000000 -0.000000 1.000000 0.000000 
0.750000 1.000000 -0.500000 0.000000 1.000000 0.000000 
0.750000 1.000000 -0.750000 0.000000 1.000000 -0.000000 
1.000000 1.000000 -0.500000 0.000000 1.000000 0.000000 
1.000000 1.000000 -0.750000 0.000000 1.000000 0.000000 
1.000000 1.000000 -1.000000 0.000000 1.000000 0.000000 
0.750000 1.000000 -1.000000 0.000000 1.000000 0.000000 
1.000000 1.000000 -0.250000 0.000000 1.000000 0.000000 
0.250000 1.000000 0.750000 0.000000 1.000000 0.000000 
0.000000 1.000000 0.500000 0.000000 1.000000 0.000000 
0.000000 1.000000 0.750000 0.000000 1.000000 0.000000 
0.250000 1.000000 1.000000 0.000000 1.000000 0.000000 
0.500000 1.000000 1.000000 0.000000 1.000000 0.000000 
0.000000 1.000000 1.000000 0.000000 1.000000 0.000000 
0.500000 1.000000 0.750000 0.000000 1.000000 -0.000000 
0.250000 1.000000 0.500000 0.000000 1.000000 0.000000 
0.000000 1.000000 0.250000 0.000000 1.000000 0.000000 
0.750000 1.000000 1.000000 0.000000 1.000000 0.000000 
-0.250000 1.000000 0.250000 0.000000 1.000000 0.000000 
-0.250000 1.000000 0.000000 0.000000 1.000000 0.000000 
-0.500000 1.000000 0.000000 0.000000 1.000000 0.000000 
-0.500000 1.000000 0.250000 0.000000 1.000000 0.000000 
-0.250000 1.000000 0.500000 0.000000 1.000000 0.000000 
-0.500000 1.000000 0.500000 0.000000 1.000000 0.000000 
-0.250000 1.000000 0.750000 0.000000 1.000000 0.000000 
-0.750000 1.000000 0.250000 0.000000 1.000000 0.000000 
-0.750000 1.000000 0.000000 0.000000 1.000000 0.000000 
-1.000000 1.000000 0.000000 0.000000 1.000000 -0.000000 
-0.750000 1.000000 0.750000 0.000000 1.000000 0.000000 
-1.000000 1.000000 0.500000 0.000000 1.000000 0.000000 
-1.000000 1.000000 0.750000 0.000000 1.000000 0.000000 
-0.750000 1.000000 1.000000 0.000000 1.000000 0.000000 
-0.500000 1.000000 1.000000 0.000000 1.000000 0.000000 
-1.000000 1.000000 1.000000 0.000000 1.000000 0.000000 
-0.500000 1.000000 0.750000 0.000000 1.000000 0.000000 
-0.750000 1.000000 0.500000 0.000000 1.000000 0.000000 
-1.000000 1.000000 0.250000 0.000000 1.000000 0.000000 
-0.250000 1.000000 1.000000 0.000000 1.000000 0.000000 
-0.750000 1.000000 -0.250000 0.000000 1.000000 0.000000 
-1.000000 1.000000 -0.500000 0.000000 1.000000 0.000000 
-1.000000 1.000000 -0.250000 0.000000 1.000000 0.000000 
-0.500000 1.000000 -0.250000 0.000000 1.000000 0.000000 
-0.750000 1.000000 -0.500000 0.000000 1.000000 0.000000 
-1.000000 1.000000 -0.750000 0.000000 1.000000 0.000000 
-1.000000 -0.500000 -0.250000 -1.000000 0.000000 -0.000000 
-1.000000 -0.500000 0.000000 -1.000000 0.000000 -0.000000 
-1.000000 -0.250000 0.000000 -1.000000 0.000000 -0.000000 
-1.000000 -0.250000 -0.250000 -1.000000 0.000000 0.000000 
-1.000000 -0.500000 -0.500000 -1.000000 -0.000000 -0.000000 
-1.000000 0.000000 0.000000 -1.000000 -0.000000 0.000000 
-1.000000 -0.750000 -0.500000 -1.000000 0.000000 0.000000 
-1.000000 -0.750000 -0.500000 -1.000000 0.000001 -0.000000 
-1.000000 -0.750000 -0.250000 -1.000000 0.000001 -0.000000 
-1.000000 -0.500000 -0.250000 -1.000000 0.000001 -0.000000 
-1.000000 -0.500000 0.000000 -1.000000 0.000001 -0.000000 
-1.000000 -0.750000 -0.250000 -1.000000 0.000000 -0.000000 
-1.000000 -1.000000 -0.500000 -1.000000 0.000000 -0.000000 
-1.000000 -1.000000 -0.250000 -1.000000 -0.000000 -0.000000 
-1.000000 -1.000000 0.000000 -1.000000 -0.000000 -0.000000 
-1.000000 -0.750000 0.000000 -1.000000 -0.000000 -0.000000 
-1.000000 -1.000000 -0.750000 -1.000000 0.000000 0.000000 
-1.000000 -0.750000 -0.750000 -1.000000 0.000001 -0.000000 
-1.000000 -1.000000 -0.750000 -1.000000 0.000001 -0.000000 
-1.000000 -1.000000 -1.000000 -1.000000 0.000001 -0.000000 
-1.000000 -0.750000 -0.750000 -1.000000 0.000000 -0.000000 
-1.000000 -0.500000 0.250000 -1.000000 0.000000 -0.000000 
-1.000000 -0.750000 0.250000 -1.000000 -0.000000 0.000000 
-1.000000 -0.500000 0.500000 -1.000000 0.000000 0.000000 
-1.000000 -0.250000 0.500000 -1.000000 0.000000 -0.000000 
-1.000000 -0.250000 0.500000 -1.000000 0.000001 -0.000000 
-1.000000 -0.250000 0.250000 -1.000000 0.000001 -0.000000 
-1.000000 -0.500000 0.250000 -1.000000 0.000001 -0.000000 
-1.000000 -0.250000 0.250000 -1.000000 0.000000 -0.000000 
-1.000000 0.000000 0.500000 -1.000000 0.000000 -0.000000 
-1.000000 0.000000 0.250000 -1.000000 0.000000 0.000000 
-1.000000 0.000000 0.750000 -1.000000 0.000000 -0.000000 
-1.000000 -0.250000 0.750000 -1.000000 0.000001 -0.000000 
-1.000000 0.000000 0.750000 -1.000000 0.000001 -0.000000 
-1.000000 0.000000 1.000000 -1.000000 0.000001 -0.000000 
-1.000000 -0.250000 0.750000 -1.000000 0.000000 -0.000000 
-1.000000 0.500000 0.750000 -1.000000 -0.000000 0.000000 
-1.000000 0.500000 1.000000 -1.000000 -0.000000 0.000000 
-1.000000 0.750000 1.000000 -1.000000 -0.000000 0.000000 
-1.000000 0.750000 0.750000 -1.000000 0.000000 0.000000 
-1.000000 0.500000 0.500000 -1.000000 -0.000000 0.000000 
-1.000000 1.000000 1.000000 -1.000000 0.000000 -0.000000 
-1.000000 0.250000 0.500000 -1.000000 0.000000 0.000000 
-1.000000 0.250000 0.750000 -1.000000 -0.000000 0.000000 
-1.000000 0.000000 1.000000 -1.000000 0.000000 -0.000000 
-1.000000 0.250000 1.000000 -1.000000 0.000000 -0.000000 
-1.000000 0.250000 0.250000 -1.000000 0.000000 0.000000 
-1.000000 -0.500000 0.750000 -1.000000 -0.000000 0.000000 
-1.000000 -0.500000 1.000000 -1.000000 -0.000000 0.000000 
-1.000000 -0.250000 1.000000 -1.000000 -0.000000 0.000000 
-1.000000 -0.750000 0.500000 -1.000000 0.000000 0.000000 
-1.000000 -0.750000 0.750000 -1.000000 -0.000000 0.000000 
-1.000000 -1.000000 0.500000 -1.000000 0.000000 0.000000 
-1.000000 -1.000000 0.750000 -1.000000 0.000000 -0.000000 
-1.000000 -1.000000 1.000000 -1.000000 0.000000 -0.000000 
-1.000000 -0.750000 1.000000 -1.000000 0.000000 -0.000000 
-1.000000 -1.000000 0.250000 -1.000000 -0.000000 0.000000 
-1.000000 -0.250000 -0.750000 -1.000000 0.000000 -0.000000 
-1.000000 0.000000 -0.500000 -1.000000 0.000000 -0.000000 
-1.000000 0.000000 -0.750000 -1.000000 0.000000 -0.000000 
-1.000000 -0.250000 -1.000000 -1.000000 0.000000 -0.000000 
-1.000000 -0.500000 -1.000000 -1.000000 0.000000 -0.000000 
-1.000000 0.000000 -1.000000 -1.000000 0.000000 0.000000 
-1.000000 -0.500000 -0.750000 -1.000000 0.000000 0.000000 
-1.000000 -0.250000 -0.500000 -1.000000 -0.000000 0.000000 
-1.000000 0.000000 -0.250000 -1.000000 -0.000000 0.000000 
-1.000000 -0.750000 -1.000000 -1.000000 0.000000 0.000000 
-1.000000 -1.000000 -1.000000 -1.000000 0.000000 0.000000 
-1.000000 0.250000 -0.250000 -1.000000 0.000000 -0.000000 
-1.000000 0.250000 0.000000 -1.000000 0.000000 -0.000000 
-1.000000 0.500000 0.000000 -1.000000 0.000000 -0.000000 
-1.000000 0.500000 -0.250000 -1.000000 -0.000000 0.000000 
-1.000000 0.250000 -0.500000 -1.000000 0.000000 0.000000 
-1.000000 0.500000 -0.500000 -1.000000 0.000000 -0.000000 
-1.000000 0.250000 -0.750000 -1.000000 0.000000 0.000000 
-1.000000 0.750000 -0.250000 -1.000000 0.000000 -0.000000 
-1.000000 0.750000 0.000000 -1.000000 0.000000 -0.000000 
-1.000000 1.000000 0.000000 -1.000000 0.000000 -0.000000 
-1.000000 0.750000 -0.750000 -1.000000 0.000000 -0.000000 
-1.000000 1.000000 -0.500000 -1.000000 0.000000 -0.000000 
-1.000000 1.000000 -0.750000 -1.000000 0.000000 -0.000000 
-1.000000 0.750000 -1.000000 -1.000000 0.000000 -0.000000 
-1.000000 0.500000 -1.000000 -1.000000 0.000000 -0.000000 
-1.000000 1.000000 -1.000000 -1.000000 0.000000 0.000000 
-1.000000 0.500000 -0.750000 -1.000000 0.000000 0.000000 
-1.000000 0.750000 -0.500000 -1.000000 -0.000000 0.000000 
-1.000000 1.000000 -0.250000 -1.000000 -0.000000 0.000000 
-1.000000 0.250000 -1.000000 -1.000000 0.000000 -0.000000 
-1.000000 0.750000 0.250000 -1.000000 0.000000 -0.000000 
-1.000000 1.000000 0.500000 -1.000000 0.000000 -0.000000 
-1.000000 1.000000 0.250000 -1.000000 0.000000 -0.000000 
-1.000000 0.500000 0.250000 -1.000000 0.000000 -0.000000 
-1.000000 0.750000 0.500000 -1.000000 0.000000 -0.000000 
-1.000000 1.000000 0.750000 -1.000000 0.000000 -0.000000 
0.500000 -1.000000 -0.750000 -0.000000 -1.000000 -0.000000 
0.500000 -1.000000 -0.500000 -0.000000 -1.000000 -0.000000 
0.250000 -1.000000 -0.750000 -0.000000 -1.000000 -0.000000 
0.250000 -1.000000 -1.000000 -0.000000 -1.000000 -0.000000 
0.500000 -1.000000 -1.000000 -0.000000 -1.000000 -0.000000 
0.000000 -1.000000 -1.000000 0.000000 -1.000000 -0.000000 
0.750000 -1.000000 -0.750000 0.000000 -1.000000 -0.000000 
0.750000 -1.000000 -0.500000 0.000000 -1.000000 0.000000 
1.000000 -1.000000 -0.500000 -0.000000 -1.000000 -0.000000 
1.000000 -1.000000 -0.250000 -0.000000 -1.000000 -0.000000 
1.000000 -1.000000 0.000000 -0.000000 -1.000000 -0.000000 
0.750000 -1.000000 -0.250000 -0.000000 -1.000000 -0.000000 
1.000000 -1.000000 -0.750000 0.000000 -1.000000 -0.000000 
0.750000 -1.000000 -1.000000 -0.000000 -1.000000 0.000000 
1.000000 -1.000000 -1.000000 0.000000 -1.000000 0.000000 
0.500000 -1.000000 -0.250000 0.000000 -1.000000 -0.000000 
0.750000 -1.000000 0.000000 0.000000 -1.000000 -0.000000 
0.500000 -1.000000 0.000000 0.000000 -1.000000 -0.000000 
0.250000 -1.000000 -0.250000 0.000000 -1.000000 -0.000000 
0.250000 -1.000000 -0.500000 0.000000 -1.000000 -0.000000 
-0.000000 -1.000000 -0.500000 0.000000 -1.000000 -0.000000 
-0.000000 -1.000000 -0.750000 0.000000 -1.000000 -0.000000 
-0.000000 -1.000000 -0.250000 0.000000 -1.000000 -0.000000 
0.250000 -1.000000 0.000000 0.000000 -1.000000 -0.000000 
-0.000000 -1.000000 0.000000 0.000000 -1.000000 -0.000000 
-0.500000 -1.000000 -0.750000 -0.000000 -1.000000 -0.000000 
-0.500000 -1.000000 -0.500000 -0.000000 -1.000000 -0.000000 
-0.750000 -1.000000 -0.750000 -0.000000 -1.000000 -0.000000 
-0.750000 -1.000000 -1.000000 -0.000000 -1.000000 -0.000000 
-0.500000 -1.000000 -1.000000 0.000000 -1.000000 -0.000000 
-1.000000 -1.000000 -1.000000 -0.000000 -1.000000 -0.000000 
-0.250000 -1.000000 -0.750000 0.000000 -1.000000 -0.000000 
-0.250000 -1.000000 -0.500000 0.000000 -1.000000 -0.000000 
-0.250000 -1.000000 -0.250000 0.000000 -1.000000 -0.000000 
-0.250000 -1.000000 -1.000000 0.000000 -1.000000 -0.000000 
0.500000 -1.000000 0.250000 0.000000 -1.000000 -0.000000 
0.499999 -1.000000 0.500000 0.000000 -1.000000 -0.000000 
0.250000 -1.000000 0.250000 0.000000 -1.000000 -0.000000 
0.750000 -1.000000 0.250000 0.000000 -1.000000 -0.000000 
0.750000 -1.000000 0.500000 0.000000 -1.000000 -0.000000 
1.000000 -1.000000 0.500000 0.000000 -1.000000 -0.000000 
0.999999 -1.000000 0.750000 0.000000 -1.000000 -0.000000 
0.999999 -1.000001 1.000000 0.000000 -1.000000 -0.000000 
0.749999 -1.000000 0.750000 0.000000 -1.000000 -0.000000 
1.000000 -1.000000 0.250000 0.000000 -1.000000 -0.000000 
0.250000 -1.000000 0.500000 -0.000000 -1.000000 -0.000000 
-0.000000 -1.000000 0.500000 -0.000000 -1.000000 -0.000000 
-0.000000 -1.000000 0.250000 -0.000000 -1.000000 -0.000000 
0.499999 -1.000000 0.750000 -0.000000 -1.000000 -0.000000 
0.499999 -1.000000 0.750000 -0.000001 -1.000000 0.000000 
0.249999 -1.000000 0.750000 -0.000001 -1.000000 0.000000 
0.250000 -1.000000 0.500000 -0.000001 -1.000000 0.000000 
0.249999 -1.000000 0.750000 -0.000000 -1.000000 0.000000 
0.499999 -1.000000 1.000000 -0.000001 -1.000000 0.000000 
0.249999 -1.000000 1.000000 -0.000000 -1.000000 0.000000 
-0.000001 -1.000000 1.000000 -0.000000 -1.000000 0.000000 
-0.000000 -1.000000 0.750000 -0.000000 -1.000000 0.000000 
0.499999 -1.000000 1.000000 -0.000000 -1.000000 -0.000000 
0.749999 -1.000000 1.000000 -0.000000 -1.000000 0.000000 
-0.250000 -1.000000 0.500000 -0.000000 -1.000000 -0.000000 
-0.000000 -1.000000 0.750000 -0.000001 -1.000000 0.000000 
-0.250000 -1.000000 0.750000 -0.000001 -1.000000 0.000000 
-0.250000 -1.000000 0.500000 -0.000001 -1.000000 0.000000 
-0.500000 -1.000000 0.500000 -0.000001 -1.000000 0.000000 
-0.000001 -1.000000 1.000000 -0.000001 -1.000000 0.000000 
-0.500000 -1.000000 0.250000 -0.000001 -1.000000 0.000000 
-0.500000 -1.000000 0.250000 -0.000000 -1.000000 -0.000000 
-0.250000 -1.000000 0.250000 -0.000000 -1.000000 -0.000000 
-0.500000 -1.000000 0.000000 -0.000000 -1.000000 -0.000000 
-0.250000 -1.000000 0.000000 -0.000000 -1.000000 -0.000000 
-0.750000 -1.000000 0.000000 -0.000000 -1.000000 -0.000000 
-0.750000 -1.000000 0.250000 -0.000000 -1.000000 -0.000000 
-1.000000 -1.000000 0.000000 -0.000000 -1.000000 -0.000000 
-0.500000 -1.000000 0.500000 -0.000000 -1.000000 0.000000 
-0.750000 -1.000000 -0.500000 -0.000000 -1.000000 0.000000 
-1.000000 -1.000000 -0.500000 -0.000000 -1.000000 0.000000 
-1.000000 -1.000000 -0.750000 -0.000000 -1.000000 0.000000 
-0.500000 -1.000000 -0.250000 -0.000000 -1.000000 -0.000000 
-0.750000 -1.000000 -0.250000 -0.000000 -1.000000 0.000000 
-1.000000 -1.000000 -0.250000 -0.000000 -1.000000 0.000000 
-0.750000 -1.000000 0.500000 -0.000000 -1.000000 0.000000 
-1.000000 -1.000000 0.500000 -0.000000 -1.000000 0.000000 
-1.000000 -1.000000 0.250000 -0.000000 -1.000000 0.000000 
-0.500000 -1.000000 0.750000 -0.000000 -1.000000 0.000000 
-0.750000 -1.000000 0.750000 -0.000000 -1.000000 0.000000 
-0.500000 -1.000000 1.000000 -0.000000 -1.000000 -0.000000 
-0.750000 -1.000000 1.000000 -0.000000 -1.000000 -0.000000 
-1.000000 -1.000000 1.000000 -0.000000 -1.000000 -0.000000 
-1.000000 -1.000000 0.750000 -0.000000 -1.000000 -0.000000 
-0.250001 -1.000000 1.000000 -0.000000 -1.000000 -0.000000 
-0.250000 -1.000000 0.750000 -0.000000 -1.000000 -0.000000 
1.000000 0.500000 -0.750000 1.000000 0.000000 -0.000000 
1.000000 0.500000 -0.500000 1.000000 0.000000 -0.000000 
1.000000 0.250000 -0.750000 1.000000 0.000000 -0.000000 
1.000000 0.250000 -1.000000 1.000000 0.000000 0.000000 
1.000000 0.500000 -1.000000 1.000000 -0.000000 0.000000 
1.000000 -0.000000 -1.000000 1.000000 -0.000000 0.000000 
1.000000 0.750000 -0.750000 1.000000 0.000000 0.000000 
1.000000 0.750000 -0.500000 1.000000 0.000000 -0.000000 
1.000000 1.000000 -0.500000 1.000000 0.000000 -0.000000 
1.000000 1.000000 -0.250000 1.000000 -0.000000 0.000000 
1.000000 1.000000 0.000000 1.000000 -0.000000 0.000000 
1.000000 0.750000 -0.250000 1.000000 -0.000000 0.000000 
1.000000 1.000000 -0.750000 1.000000 0.000000 -0.000000 
1.000000 0.750000 -1.000000 1.000000 0.000000 0.000000 
1.000000 1.000000 -1.000000 1.000000 -0.000000 0.000000 
1.000000 0.500000 -0.250000 1.000000 0.000000 -0.000000 
1.000000 0.750000 0.000000 1.000000 -0.000000 0.000000 
1.000000 0.500000 0.000000 1.000000 0.000000 0.000000 
1.000000 0.250000 -0.250000 1.000000 -0.000000 0.000000 
1.000000 0.250000 -0.500000 1.000000 0.000000 -0.000000 
1.000000 -0.000000 -0.500000 1.000000 0.000000 -0.000000 
1.000000 -0.000000 -0.750000 1.000000 0.000000 0.000000 
1.000000 -0.000000 -0.250000 1.000000 0.000000 -0.000000 
1.000000 0.250000 0.000000 1.000000 -0.000000 0.000000 
1.000000 -0.000000 0.000000 1.000000 0.000000 0.000000 
1.000000 -0.500000 -0.750000 1.000000 0.000000 -0.000000 
1.000000 -0.500000 -0.500000 1.000000 0.000000 -0.000000 
1.000000 -0.750000 -0.750000 1.000000 0.000000 -0.000000 
1.000000 -0.750000 -1.000000 1.000000 0.000000 0.000000 
1.000000 -0.500000 -1.000000 1.000000 -0.000000 0.000000 
1.000000 -1.000000 -1.000000 1.000000 -0.000000 0.000000 
1.000000 -0.250000 -0.750000 1.000000 0.000000 0.000000 
1.000000 -0.250000 -0.500000 1.000000 0.000000 -0.000000 
1.000000 -0.250000 -0.250000 1.000000 -0.000000 0.000000 
1.000000 -0.250000 -1.000000 1.000000 0.000000 0.000000 
1.000000 0.500000 0.250000 1.000000 0.000000 -0.000000 
1.000000 0.500000 0.500000 1.000000 0.000000 -0.000000 
1.000000 0.250000 0.250000 1.000000 0.000000 -0.000000 
1.000000 0.750000 0.250000 1.000000 0.000000 0.000000 
1.000000 0.750000 0.500000 1.000000 0.000000 -0.000000 
1.000000 1.000000 0.500000 1.000000 0.000000 -0.000000 
1.000000 1.000000 0.750000 1.000000 -0.000000 0.000000 
1.000000 0.999999 1.000000 1.000000 -0.000000 0.000000 
1.000000 0.750000 0.750000 1.000000 -0.000000 0.000000 
1.000000 1.000000 0.250000 1.000000 0.000000 -0.000000 
1.000000 0.250000 0.500000 1.000000 -0.000001 0.000000 
1.000000 -0.000000 0.500000 1.000000 -0.000001 0.000000 
1.000000 -0.000000 0.250000 1.000000 -0.000001 0.000000 
1.000000 -0.000000 0.250000 1.000000 -0.000000 -0.000000 
1.000000 0.250000 0.500000 1.000000 -0.000000 -0.000000 
1.000000 0.500000 0.750000 1.000000 -0.000000 0.000000 
1.000000 0.250000 0.750000 1.000000 -0.000000 0.000000 
1.000000 0.250000 0.750000 1.000000 -0.000001 0.000000 
1.000000 0.499999 1.000000 1.000000 -0.000000 -0.000000 
1.000000 0.249999 1.000000 1.000000 -0.000000 0.000000 
1.000000 -0.000001 1.000000 1.000000 -0.000000 0.000000 
1.000000 -0.000000 0.750000 1.000000 -0.000000 0.000000 
1.000000 -0.000000 0.750000 1.000000 -0.000001 0.000000 
1.000000 0.249999 1.000000 1.000000 -0.000001 0.000000 
1.000000 0.499999 1.000000 1.000000 -0.000001 0.000000 
1.000000 0.749999 1.000000 1.000000 -0.000000 -0.000000 
1.000000 0.500000 0.750000 1.000000 -0.000001 0.000000 
1.000000 0.750000 0.750000 1.000000 -0.000001 0.000000 
1.000000 0.749999 1.000000 1.000000 -0.000001 0.000000 
1.000000 0.500000 0.500000 1.000000 -0.000001 0.000000 
1.000000 -0.250000 0.500000 1.000000 -0.000000 0.000000 
1.000000 -0.000000 0.500000 1.000000 -0.000000 0.000000 
1.000000 -0.250000 0.750000 1.000000 -0.000000 0.000000 
1.000000 -0.500000 0.500000 1.000000 -0.000000 0.000000 
1.000000 -0.500000 0.250000 1.000000 -0.000000 0.000000 
1.000000 -0.250000 0.250000 1.000000 -0.000000 0.000000 
1.000000 -0.500000 0.000000 1.000000 -0.000000 0.000000 
1.000000 -0.250000 0.000000 1.000000 -0.000000 0.000000 
1.000000 -0.500000 0.000000 1.000000 -0.000001 0.000000 
1.000000 -0.250000 0.000000 1.000000 -0.000001 0.000000 
1.000000 -0.250000 0.250000 1.000000 -0.000001 0.000000 
1.000000 -0.750000 0.000000 1.000000 -0.000001 0.000000 
1.000000 -0.500000 0.250000 1.000000 -0.000001 0.000000 
1.000000 -0.750000 0.250000 1.000000 -0.000001 0.000000 
1.000000 -1.000000 0.000000 1.000000 -0.000000 0.000000 
1.000000 -0.750000 0.000000 1.000000 -0.000000 0.000000 
1.000000 -0.750000 0.250000 1.000000 -0.000000 0.000000 
1.000000 -0.500000 0.500000 1.000000 -0.000001 0.000000 
1.000000 -0.750000 -0.500000 1.000000 -0.000001 0.000000 
1.000000 -1.000000 -0.500000 1.000000 -0.000001 0.000000 
1.000000 -1.000000 -0.750000 1.000000 -0.000001 0.000000 
1.000000 -1.000000 -0.750000 1.000000 -0.000000 -0.000000 
1.000000 -0.750000 -0.500000 1.000000 -0.000000 -0.000000 
1.000000 -0.500000 -0.250000 1.000000 -0.000000 0.000000 
1.000000 -0.750000 -0.250000 1.000000 -0.000000 0.000000 
1.000000 -0.750000 -0.250000 1.000000 -0.000001 0.000000 
1.000000 -1.000000 -0.250000 1.000000 -0.000000 0.000000 
1.000000 -1.000000 -0.500000 1.000000 -0.000000 0.000000 
1.000000 -0.500000 -0.250000 1.000000 -0.000001 0.000000 
1.000000 -0.250000 -0.250000 1.000000 -0.000001 0.000000 
1.000000 -0.500000 -0.500000 1.000000 -0.000001 0.000000 
1.000000 -0.750000 0.500000 1.000000 -0.000000 0.000000 
1.000000 -1.000000 0.500000 1.000000 -0.000000 0.000000 
1.000000 -1.000000 0.250000 1.000000 -0.000000 0.000000 
1.000000 -0.500000 0.750000 1.000000 -0.000000 0.000000 
1.000000 -0.750001 0.750000 1.000000 -0.000000 0.000000 
1.000000 -0.500001 1.000000 1.000000 -0.000000 0.000000 
1.000000 -0.750001 1.000000 1.000000 -0.000001 0.000000 
0.999999 -1.000001 1.000000 1.000000 -0.000001 0.000000 
0.999999 -1.000000 0.750000 1.000000 -0.000001 0.000000 
1.000000 -0.750001 0.750000 1.000000 -0.000001 0.000000 
1.000000 -0.750001 1.000000 1.000000 -0.000000 0.000000 
1.000000 -1.000000 0.500000 1.000000 -0.000001 0.000000 
1.000000 -0.250001 1.000000 1.000000 -0.000000 0.000000 
0.750000 0.500000 1.000000 -0.000000 -0.000000 1.000000 
0.500000 0.500000 1.000000 -0.000000 -0.000000 1.000000 
0.750000 0.250000 1.000000 -0.000000 -0.000000 1.000000 
1.000000 0.249999 1.000000 0.000000 0.000000 1.000000 
1.000000 0.499999 1.000000 -0.000000 -0.000000 1.000000 
1.000000 -0.000001 1.000000 -0.000000 -0.000000 1.000000 
0.750000 0.750000 1.000000 0.000000 0.000000 1.000000 
0.500000 0.750000 1.000000 -0.000000 -0.000000 1.000000 
0.500000 1.000000 1.000000 0.000000 0.000000 1.000000 
0.250000 1.000000 1.000000 -0.000000 -0.000000 1.000000 
0.000000 1.000000 1.000000 -0.000000 -0.000000 1.000000 
0.250000 0.750000 1.000000 -0.000000 -0.000000 1.000000 
0.750000 1.000000 1.000000 -0.000000 -0.000000 1.000000 
1.000000 0.749999 1.000000 0.000000 0.000000 1.000000 
1.000000 0.999999 1.000000 -0.000000 -0.000000 1.000000 
0.250000 0.500000 1.000000 0.000000 0.000000 1.000000 
0.000000 0.750000 1.000000 -0.000000 -0.000000 1.000000 
-0.000000 0.500000 1.000000 0.000000 0.000000 1.000000 
0.250000 0.250000 1.000000 -0.000000 -0.000000 1.000000 
0.500000 0.250000 1.000000 0.000000 0.000000 1.000000 
0.500000 -0.000000 1.000000 -0.000000 -0.000000 1.000000 
0.750000 -0.000000 1.000000 0.000000 0.000000 1.000000 
0.250000 -0.000000 1.000000 0.000000 0.000000 1.000000 
-0.000000 0.250000 1.000000 -0.000000 -0.000000 1.000000 
-0.000000 -0.000000 1.000000 0.000000 0.000000 1.000000 
0.750000 -0.500001 1.000000 -0.000000 -0.000000 1.000000 
0.500000 -0.500000 1.000000 -0.000000 -0.000000 1.000000 
0.749999 -0.750001 1.000000 -0.000000 -0.000000 1.000000 
1.000000 -0.750001 1.000000 0.000000 0.000000 1.000000 
1.000000 -0.500001 1.000000 -0.000000 -0.000000 1.000000 
0.999999 -1.000001 1.000000 -0.000000 -0.000000 1.000000 
0.750000 -0.250001 1.000000 0.000000 0.000000 1.000000 
0.500000 -0.250000 1.000000 -0.000000 -0.000000 1.000000 
0.250000 -0.250000 1.000000 -0.000000 -0.000000 1.000000 
1.000000 -0.250001 1.000000 0.000000 0.000000 1.000000 
-0.250000 0.500000 1.000000 -0.000000 -0.000000 1.000000 
-0.500000 0.500000 1.000000 -0.000000 -0.000000 1.000000 
-0.250000 0.250000 1.000000 -0.000000 -0.000000 1.000000 
-0.250000 0.750000 1.000000 0.000000 0.000000 1.000000 
-0.500000 0.750000 1.000000 -0.000000 -0.000000 1.000000 
-0.500000 1.000000 1.000000 0.000000 0.000000 1.000000 
-0.750000 1.000000 1.000000 -0.000000 -0.000000 1.000000 
-1.000000 1.000000 1.000000 -0.000000 -0.000000 1.000000 
-0.750000 0.750000 1.000000 -0.000000 -0.000000 1.000000 
-0.250000 1.000000 1.000000 -0.000000 -0.000000 1.000000 
-0.500000 0.250000 1.000000 0.000000 -0.000000 1.000000 
-0.500000 -0.000000 1.000000 0.000000 -0.000000 1.000000 
-0.250000 -0.000000 1.000000 0.000000 -0.000000 1.000000 
-0.750000 0.500000 1.000000 0.000000 0.000000 1.000000 
-0.750000 0.250000 1.000000 0.000000 -0.000000 1.000000 
-1.000000 0.500000 1.000000 0.000000 0.000000 1.000000 
-1.000000 0.250000 1.000000 0.000000 -0.000000 1.000000 
-1.000000 0.000000 1.000000 0.000000 -0.000000 1.000000 
-0.750000 0.000000 1.000000 0.000000 -0.000000 1.000000 
-1.000000 0.750000 1.000000 0.000000 -0.000000 1.000000 
-0.500000 -0.250000 1.000000 0.000000 0.000000 1.000000 
-0.750000 -0.250000 1.000000 0.000000 -0.000000 1.000000 
-0.500000 -0.500000 1.000000 0.000000 0.000000 1.000000 
-0.250000 -0.500000 1.000000 0.000000 -0.000000 1.000000 
-0.250000 -0.250000 1.000000 0.000000 0.000000 1.000000 
-0.000000 -0.500000 1.000000 0.000000 -0.000000 1.000000 
-0.000000 -0.250000 1.000000 0.000000 0.000000 1.000000 
-0.000000 -0.750000 1.000000 0.000000 0.000000 1.000000 
-0.250000 -0.750000 1.000000 0.000000 -0.000000 1.000000 
-0.000001 -1.000000 1.000000 0.000000 0.000000 1.000000 
0.499999 -0.750000 1.000000 0.000000 -0.000000 1.000000 
0.499999 -1.000000 1.000000 0.000000 -0.000000 1.000000 
0.749999 -1.000000 1.000000 0.000000 -0.000000 1.000000 
0.250000 -0.500000 1.000000 0.000000 0.000000 1.000000 
0.249999 -0.750000 1.000000 0.000000 -0.000000 1.000000 
0.249999 -1.000000 1.000000 0.000000 -0.000000 1.000000 
-0.500000 -0.750000 1.000000 0.000000 -0.000000 1.000000 
-0.500000 -1.000000 1.000000 0.000000 -0.000000 1.000000 
-0.250001 -1.000000 1.000000 0.000000 -0.000000 1.000000 
-0.750000 -0.500000 1.000000 0.000000 0.000000 1.000000 
-0.750000 -0.750000 1.000000 0.000000 -0.000000 1.000000 
-1.000000 -0.500000 1.000000 0.000000 0.000000 1.000000 
-1.000000 -0.750000 1.000000 0.000000 -0.000000 1.000000 
-1.000000 -1.000000 1.000000 0.000000 -0.000000 1.000000 
-0.750000 -1.000000 1.000000 0.000000 -0.000000 1.000000 
-1.000000 -0.250000 1.000000 0.000000 -0.000000 1.000000 
0.500000 0.250000 -1.000000 0.000000 0.000000 -1.000000 
0.500000 0.000000 -1.000000 0.000000 0.000000 -1.000000 
0.250000 0.000000 -1.000000 0.000000 0.000000 -1.000000 
0.250000 0.250000 -1.000000 -0.000000 -0.000000 -1.000000 
0.500000 0.500000 -1.000000 0.000000 0.000000 -1.000000 
0.000000 0.000000 -1.000000 0.000000 0.000000 -1.000000 
0.750000 0.500000 -1.000000 -0.000000 -0.000000 -1.000000 
0.750000 0.250000 -1.000000 0.000000 0.000000 -1.000000 
1.000000 0.500000 -1.000000 -0.000000 -0.000000 -1.000000 
1.000000 0.250000 -1.000000 0.000000 0.000000 -1.000000 
1.000000 -0.000000 -1.000000 0.000000 0.000000 -1.000000 
0.750000 -0.000000 -1.000000 0.000000 0.000000 -1.000000 
1.000000 0.750000 -1.000000 0.000000 0.000000 -1.000000 
0.750000 0.750000 -1.000000 -0.000000 -0.000000 -1.000000 
1.000000 1.000000 -1.000000 0.000000 0.000000 -1.000000 
0.500000 -0.250000 -1.000000 -0.000000 -0.000000 -1.000000 
0.750000 -0.250000 -1.000000 0.000000 0.000000 -1.000000 
0.500000 -0.500000 -1.000000 -0.000000 -0.000000 -1.000000 
0.250000 -0.500000 -1.000000 0.000000 0.000000 -1.000000 
0.250000 -0.250000 -1.000000 -0.000000 -0.000000 -1.000000 
0.000000 -0.500000 -1.000000 0.000000 0.000000 -1.000000 
0.000000 -0.250000 -1.000000 -0.000000 -0.000000 -1.000000 
0.000000 -0.750000 -1.000000 -0.000000 -0.000000 -1.000000 
0.250000 -0.750000 -1.000000 0.000000 0.000000 -1.000000 
0.000000 -1.000000 -1.000000 -0.000000 -0.000000 -1.000000 
-0.500000 -0.750000 -1.000000 0.000000 0.000000 -1.000000 
-0.500000 -1.000000 -1.000000 0.000000 0.000000 -1.000000 
-0.750000 -1.000000 -1.000000 0.000000 0.000000 -1.000000 
-0.750000 -0.750000 -1.000000 -0.000000 -0.000000 -1.000000 
-0.500000 -0.500000 -1.000000 0.000000 0.000000 -1.000000 
-1.000000 -1.000000 -1.000000 0.000000 0.000000 -1.000000 
-0.250000 -0.500000 -1.000000 -0.000000 -0.000000 -1.000000 
-0.250000 -0.750000 -1.000000 0.000000 0.000000 -1.000000 
-0.250000 -1.000000 -1.000000 0.000000 0.000000 -1.000000 
-0.250000 -0.250000 -1.000000 -0.000000 -0.000000 -1.000000 
0.500000 -0.750000 -1.000000 0.000000 0.000000 -1.000000 
0.500000 -1.000000 -1.000000 0.000000 0.000000 -1.000000 
0.250000 -1.000000 -1.000000 0.000000 0.000000 -1.000000 
0.750000 -0.500000 -1.000000 -0.000000 -0.000000 -1.000000 
0.750000 -0.750000 -1.000000 0.000000 0.000000 -1.000000 
1.000000 -0.500000 -1.000000 -0.000000 -0.000000 -1.000000 
1.000000 -0.750000 -1.000000 0.000000 0.000000 -1.000000 
1.000000 -1.000000 -1.000000 0.000000 0.000000 -1.000000 
0.750000 -1.000000 -1.000000 0.000000 0.000000 -1.000000 
1.000000 -0.250000 -1.000000 0.000000 0.000000 -1.000000 
0.250000 0.750000 -1.000000 0.000000 -0.000000 -1.000000 
0.000000 0.500000 -1.000000 0.000000 -0.000000 -1.000000 
0.000000 0.750000 -1.000000 0.000000 -0.000000 -1.000000 
0.250000 1.000000 -1.000000 -0.000000 0.000000 -1.000000 
0.500000 1.000000 -1.000000 0.000000 -0.000000 -1.000000 
0.000000 1.000000 -1.000000 0.000000 -0.000000 -1.000000 
0.500000 0.750000 -1.000000 -0.000000 0.000000 -1.000000 
0.250000 0.500000 -1.000000 0.000000 -0.000000 -1.000000 
0.000000 0.250000 -1.000000 0.000000 -0.000000 -1.000000 
0.750000 1.000000 -1.000000 -0.000000 0.000000 -1.000000 
-0.250000 0.250000 -1.000000 -0.000000 0.000000 -1.000000 
-0.250000 0.000000 -1.000000 0.000000 -0.000000 -1.000000 
-0.500000 0.000000 -1.000000 -0.000000 0.000000 -1.000000 
-0.500000 0.250000 -1.000000 0.000000 -0.000000 -1.000000 
-0.250000 0.500000 -1.000000 -0.000000 0.000000 -1.000000 
-0.500000 0.500000 -1.000000 0.000000 -0.000000 -1.000000 
-0.250000 0.750000 -1.000000 -0.000000 0.000000 -1.000000 
-0.750000 0.250000 -1.000000 -0.000000 0.000000 -1.000000 
-0.750000 0.000000 -1.000000 0.000000 0.000000 -1.000000 
-1.000000 0.000000 -1.000000 -0.000000 0.000000 -1.000000 
-0.750000 0.750000 -1.000000 0.000000 -0.000000 -1.000000 
-1.000000 0.500000 -1.000000 0.000000 -0.000000 -1.000000 
-1.000000 0.750000 -1.000000 0.000000 -0.000000 -1.000000 
-0.750000 1.000000 -1.000000 -0.000000 0.000000 -1.000000 
-0.500000 1.000000 -1.000000 0.000000 -0.000000 -1.000000 
-1.000000 1.000000 -1.000000 0.000000 -0.000000 -1.000000 
-0.500000 0.750000 -1.000000 -0.000000 0.000000 -1.000000 
-0.750000 0.500000 -1.000000 0.000000 0.000000 -1.000000 
-1.000000 0.250000 -1.000000 0.000000 -0.000000 -1.000000 
-0.250000 1.000000 -1.000000 -0.000000 0.000000 -1.000000 
-0.750000 -0.250000 -1.000000 0.000000 -0.000000 -1.000000 
-1.000000 -0.500000 -1.000000 0.000000 -0.000000 -1.000000 
-1.000000 -0.250000 -1.000000 0.000000 -0.000000 -1.000000 
-0.500000 -0.250000 -1.000000 -0.000000 0.000000 -1.000000 
-0.750000 -0.500000 -1.000000 0.000000 0.000000 -1.000000 
-1.000000 -0.750000 -1.000000 0.000000 -0.000000 -1.000000 
3 0 1 2
3 2 3 0
3 4 0 3
3 3 2 5
3 0 4 6
3 6 7 0
3 1 0 7
3 7 6 8
3 9 10 11
3 11 7 9
3 8 9 7
3 7 11 1
3 12 8 6
3 6 13 12
3 14 12 13
3 13 6 4
3 15 1 11
3 11 16 15
3 17 15 16
3 16 11 10
3 15 17 18
3 18 19 15
3 1 15 19
3 19 18 20
3 21 5 2
3 2 19 21
3 20 21 19
3 19 2 1
3 22 20 18
3 18 23 22
3 24 22 23
3 23 18 17
3 25 26 27
3 27 28 25
3 29 25 28
3 28 27 30
3 25 29 31
3 31 32 25
3 26 25 32
3 32 31 20
3 22 24 33
3 33 32 22
3 20 22 32
3 32 33 26
3 21 20 31
3 31 34 21
3 5 21 34
3 34 31 29
3 35 36 37
3 37 23 35
3 17 35 23
3 23 37 24
3 35 17 38
3 38 39 35
3 36 35 39
3 39 38 40
3 41 42 43
3 43 39 41
3 40 41 39
3 39 43 36
3 44 40 38
3 38 16 44
3 10 44 16
3 16 38 17
3 45 46 47
3 47 48 45
3 49 45 48
3 48 47 50
3 45 49 51
3 51 52 45
3 46 45 52
3 52 51 4
3 3 5 53
3 53 52 3
3 4 3 52
3 52 53 46
3 13 4 51
3 51 54 13
3 14 13 54
3 54 51 49
3 55 46 53
3 53 56 55
3 57 55 56
3 56 53 5
3 55 57 58
3 58 59 55
3 46 55 59
3 59 58 60
3 61 50 47
3 47 59 61
3 60 61 59
3 59 47 46
3 62 60 58
3 58 63 62
3 64 62 63
3 63 58 57
3 65 66 67
3 67 68 65
3 69 65 68
3 68 67 70
3 65 69 71
3 71 72 65
3 66 65 72
3 72 71 60
3 62 64 73
3 73 72 62
3 60 62 72
3 72 73 66
3 61 60 71
3 71 74 61
3 50 61 74
3 74 71 69
3 75 76 77
3 77 63 75
3 57 75 63
3 63 77 64
3 75 57 78
3 78 79 75
3 76 75 79
3 79 78 29
3 28 30 80
3 80 79 28
3 29 28 79
3 79 80 76
3 34 29 78
3 78 56 34
3 5 34 56
3 56 78 57
3 81 82 83
3 83 84 81
3 85 81 84
3 84 83 86
3 81 85 87
3 88 89 90
3 91 90 89
3 92 87 93
3 94 95 96
3 96 92 94
3 93 94 92
3 92 96 82
3 97 93 87
3 88 98 99
3 100 99 98
3 101 87 85
3 102 82 96
3 96 103 102
3 104 102 103
3 103 96 95
3 102 104 105
3 106 107 108
3 91 108 107
3 109 105 110
3 111 86 83
3 83 109 111
3 110 111 109
3 109 83 82
3 112 110 105
3 106 113 114
3 115 114 113
3 116 105 104
3 117 118 119
3 119 120 117
3 121 117 120
3 120 119 122
3 117 121 123
3 123 124 117
3 118 117 124
3 124 123 110
3 112 125 126
3 126 124 112
3 110 112 124
3 124 126 118
3 111 110 123
3 123 127 111
3 86 111 127
3 127 123 121
3 128 129 130
3 130 116 128
3 104 128 116
3 116 130 125
3 128 104 131
3 131 132 128
3 129 128 132
3 132 131 133
3 134 135 136
3 136 132 134
3 133 134 132
3 132 136 129
3 137 133 131
3 131 103 137
3 95 137 103
3 103 131 104
3 138 139 140
3 140 141 138
3 142 138 141
3 141 140 143
3 138 142 144
3 144 145 138
3 139 138 145
3 145 144 85
3 84 86 146
3 146 145 84
3 85 84 145
3 145 146 139
3 101 85 144
3 144 147 101
3 148 101 147
3 147 144 142
3 149 139 146
3 146 150 149
3 151 149 150
3 150 146 86
3 149 151 152
3 152 153 149
3 139 149 153
3 153 152 154
3 155 143 140
3 140 153 155
3 154 155 153
3 153 140 139
3 156 154 152
3 152 157 156
3 158 156 157
3 157 152 151
3 159 160 161
3 161 162 159
3 163 159 162
3 162 161 164
3 159 163 165
3 165 166 159
3 160 159 166
3 166 165 154
3 156 158 167
3 167 166 156
3 154 156 166
3 166 167 160
3 155 154 165
3 165 168 155
3 143 155 168
3 168 165 163
3 169 170 171
3 171 157 169
3 151 169 157
3 157 171 158
3 169 151 172
3 172 173 169
3 170 169 173
3 173 172 121
3 120 122 174
3 174 173 120
3 121 120 173
3 173 174 170
3 127 121 172
3 172 150 127
3 86 127 150
3 150 172 151
3 175 176 177
3 177 178 175
3 179 175 178
3 178 177 180
3 175 179 181
3 181 182 175
3 176 175 182
3 182 181 183
3 184 185 186
3 186 182 184
3 183 184 182
3 182 186 176
3 187 183 181
3 181 188 187
3 189 187 188
3 188 181 179
3 190 176 186
3 186 191 190
3 192 190 191
3 191 186 185
3 190 192 193
3 193 194 190
3 176 190 194
3 194 193 195
3 196 180 177
3 177 194 196
3 195 196 194
3 194 177 176
3 197 195 193
3 193 198 197
3 199 197 198
3 198 193 192
3 200 201 202
3 202 203 200
3 204 200 203
3 203 202 205
3 200 204 206
3 206 207 200
3 201 200 207
3 207 206 195
3 197 199 208
3 208 207 197
3 195 197 207
3 207 208 201
3 196 195 206
3 206 209 196
3 180 196 209
3 209 206 204
3 210 211 212
3 212 198 210
3 192 210 198
3 198 212 199
3 210 192 213
3 213 214 210
3 211 210 214
3 214 213 215
3 216 217 218
3 218 214 216
3 215 216 214
3 214 218 211
3 219 215 213
3 213 191 219
3 185 219 191
3 191 213 192
3 220 221 222
3 222 212 220
3 211 220 212
3 212 222 199
3 220 211 223
3 224 225 226
3 221 220 227
3 225 224 228
3 229 230 231
3 231 227 229
3 232 229 227
3 227 231 221
3 233 232 223
3 223 218 233
3 217 233 218
3 218 223 211
3 234 221 231
3 235 236 237
3 238 237 236
3 236 235 239
3 237 238 240
3 241 242 234
3 221 234 242
3 242 241 243
3 244 199 222
3 222 242 244
3 243 244 242
3 242 222 221
3 245 243 241
3 241 246 245
3 247 245 246
3 246 241 248
3 249 250 251
3 251 202 249
3 201 249 202
3 202 251 205
3 249 201 252
3 252 253 249
3 250 249 253
3 253 252 243
3 245 247 254
3 254 253 245
3 243 245 253
3 253 254 250
3 244 243 252
3 252 208 244
3 199 244 208
3 208 252 201
3 255 256 257
3 257 246 255
3 248 255 246
3 246 257 247
3 255 248 258
3 258 259 255
3 256 255 259
3 259 258 260
3 261 262 263
3 263 259 261
3 260 261 259
3 259 263 256
3 264 260 258
3 258 265 264
3 230 264 265
3 265 258 248
3 266 267 268
3 268 269 266
3 270 266 269
3 269 268 271
3 266 270 272
3 272 273 266
3 267 266 273
3 273 272 274
3 275 276 277
3 277 273 275
3 274 275 273
3 273 277 267
3 278 274 272
3 272 279 278
3 280 278 279
3 279 272 270
3 281 267 277
3 277 282 281
3 283 281 282
3 282 277 276
3 281 283 284
3 284 285 281
3 267 281 285
3 285 284 286
3 287 271 268
3 268 285 287
3 286 287 285
3 285 268 267
3 288 286 284
3 284 289 288
3 290 288 289
3 289 284 283
3 291 292 293
3 293 294 291
3 295 291 294
3 294 293 296
3 291 295 297
3 297 298 291
3 292 291 298
3 298 297 286
3 288 290 299
3 299 298 288
3 286 288 298
3 298 299 292
3 287 286 297
3 297 300 287
3 271 287 300
3 300 297 295
3 301 302 303
3 303 289 301
3 283 301 289
3 289 303 290
3 301 283 304
3 304 305 301
3 302 301 305
3 305 304 306
3 307 308 309
3 309 305 307
3 306 307 305
3 305 309 302
3 310 306 304
3 304 282 310
3 276 310 282
3 282 304 283
3 311 312 313
3 314 303 315
3 302 315 303
3 303 314 290
3 315 302 316
3 316 317 315
3 312 311 318
3 317 316 319
3 320 321 322
3 323 318 324
3 325 324 318
3 318 323 312
3 326 319 316
3 327 328 329
3 308 326 309
3 328 327 330
3 331 332 322
3 322 333 331
3 334 331 333
3 333 322 321
3 331 334 335
3 335 336 331
3 332 331 336
3 336 335 337
3 338 290 314
3 314 336 338
3 339 340 341
3 336 314 332
3 342 339 343
3 343 344 342
3 345 346 347
3 344 343 348
3 349 350 351
3 352 293 353
3 292 353 293
3 293 352 296
3 353 292 354
3 354 355 353
3 350 349 356
3 355 354 337
3 346 345 357
3 357 355 346
3 339 342 356
3 355 357 358
3 340 339 359
3 359 360 340
3 290 338 299
3 360 359 361
3 362 363 364
3 364 347 362
3 334 362 347
3 347 364 345
3 362 334 365
3 365 366 362
3 363 362 366
3 366 365 367
3 368 369 370
3 370 371 368
3 367 372 366
3 371 370 373
3 374 367 365
3 365 333 374
3 321 374 333
3 333 365 334
3 375 376 377
3 377 378 375
3 379 375 378
3 378 377 380
3 375 379 381
3 381 382 375
3 376 375 382
3 382 381 383
3 384 385 386
3 386 382 384
3 383 384 382
3 382 386 376
3 387 383 381
3 381 388 387
3 389 387 388
3 388 381 379
3 390 376 386
3 386 391 390
3 392 390 391
3 391 386 385
3 390 392 393
3 393 394 390
3 376 390 394
3 394 393 395
3 396 380 377
3 377 394 396
3 395 396 394
3 394 377 376
3 397 395 393
3 393 398 397
3 399 397 398
3 398 393 392
3 400 401 402
3 402 403 400
3 404 400 403
3 403 402 405
3 400 404 406
3 406 407 400
3 401 400 407
3 407 406 395
3 397 399 408
3 408 407 397
3 395 397 407
3 407 408 401
3 396 395 406
3 406 409 396
3 380 396 409
3 409 406 404
3 410 411 412
3 412 398 410
3 392 410 398
3 398 412 399
3 410 392 413
3 413 414 410
3 411 410 414
3 414 413 415
3 416 417 418
3 418 414 416
3 415 416 414
3 414 418 411
3 419 415 413
3 413 391 419
3 385 419 391
3 391 413 392
3 420 421 422
3 422 412 420
3 411 420 412
3 412 422 399
3 420 411 423
3 423 424 420
3 421 420 424
3 424 423 425
3 426 427 428
3 428 424 426
3 425 426 424
3 424 428 421
3 429 425 423
3 423 418 429
3 417 429 418
3 418 423 411
3 430 421 428
3 428 431 430
3 432 430 431
3 431 428 427
3 430 432 433
3 433 434 430
3 421 430 434
3 434 433 435
3 436 399 422
3 422 434 436
3 435 436 434
3 434 422 421
3 437 435 433
3 433 438 437
3 439 437 438
3 438 433 432
3 440 441 442
3 442 402 440
3 401 440 402
3 402 442 405
3 440 401 443
3 443 444 440
3 441 440 444
3 444 443 435
3 437 439 445
3 445 444 437
3 435 437 444
3 444 445 441
3 436 435 443
3 443 408 436
3 399 436 408
3 408 443 401
3 446 447 448
3 448 438 446
3 432 446 438
3 438 448 439
3 446 432 449
3 449 450 446
3 447 446 450
3 450 449 451
3 452 453 454
3 454 450 452
3 451 452 450
3 450 454 447
3 455 451 449
3 449 431 455
3 427 455 431
3 431 449 432
3 456 457 458
3 458 459 456
3 460 456 459
3 459 458 461
3 456 460 462
3 462 463 456
3 457 456 463
3 463 462 464
3 465 466 467
3 467 463 465
3 464 465 463
3 463 467 457
3 468 464 462
3 462 469 468
3 470 468 469
3 469 462 460
3 471 457 467
3 467 472 471
3 473 471 472
3 472 467 466
3 471 473 474
3 474 475 471
3 457 471 475
3 475 474 476
3 477 461 458
3 458 475 477
3 476 477 475
3 475 458 457
3 478 476 474
3 474 479 478
3 480 478 479
3 479 474 473
3 481 482 483
3 483 484 481
3 485 481 484
3 484 483 486
3 481 485 487
3 487 488 481
3 482 481 488
3 488 487 476
3 478 480 489
3 489 488 478
3 476 478 488
3 488 489 482
3 477 476 487
3 487 490 477
3 461 477 490
3 490 487 485
3 491 492 493
3 493 479 491
3 473 491 479
3 479 493 480
3 491 473 494
3 494 495 491
3 492 491 495
3 495 494 496
3 497 498 499
3 499 495 497
3 496 497 495
3 495 499 492
3 500 496 494
3 494 472 500
3 466 500 472
3 472 494 473
3 501 502 503
3 503 504 501
3 505 501 504
3 504 503 506
3 501 505 507
3 507 508 501
3 502 501 508
3 508 507 460
3 459 461 509
3 509 508 459
3 460 459 508
3 508 509 502
3 469 460 507
3 507 510 469
3 470 469 510
3 510 507 505
3 511 502 509
3 509 512 511
3 513 511 512
3 512 509 461
3 511 513 514
3 514 515 511
3 502 511 515
3 515 514 516
3 517 506 503
3 503 515 517
3 516 517 515
3 515 503 502
3 518 516 514
3 514 519 518
3 520 518 519
3 519 514 513
3 521 522 523
3 523 524 521
3 525 521 524
3 524 523 526
3 521 525 527
3 527 528 521
3 522 521 528
3 528 527 516
3 518 520 529
3 529 528 518
3 516 518 528
3 528 529 522
3 517 516 527
3 527 530 517
3 506 517 530
3 530 527 525
3 531 532 533
3 533 519 531
3 513 531 519
3 519 533 520
3 531 513 534
3 534 535 531
3 532 531 535
3 535 534 485
3 484 486 536
3 536 535 484
3 485 484 535
3 535 536 532
3 490 485 534
3 534 512 490
3 461 490 512
3 512 534 513
