ply
format ascii 1.0
comment VCGLIB generated
element vertex 558
property float x
property float y
property float z
property float nx
property float ny
property float nz
property uchar red
property uchar green
property uchar blue
property uchar alpha
property float texture_u
property float texture_v
element face 768
property list uchar int vertex_indices
end_header
0.5 1 0.25 0 1 0 0 0 255 255 0.916518 0.125074
0.5 1 0 0 1 0 0 0 255 255 0.916518 0.166666
0.25 1 0 0 1 0 0 0 255 255 0.874925 0.166666
0.25 1 0.25 0 1 -0 0 0 255 255 0.874925 0.125074
0.5 1 0.5 0 1 0 0 0 255 255 0.916518 0.083482
0 1 0 0 1 0 0 0 255 255 0.833333 0.166666
0.75 1 0.5 0 1 0 0 0 255 255 0.958110 0.083482
0.75 1 0.25 -0 1 0 0 0 255 255 0.958110 0.125074
1 1 0.5 0 1 0 211 255 0 255 0.999702 0.083482
1 1 0.25 0 1 0 211 255 0 255 0.999702 0.125074
1 1 0 0 1 0 211 255 0 255 0.999702 0.166666
0.75 1 0 0 1 0 0 0 255 255 0.958110 0.166666
1 1 0.75 0 1 0 0 0 255 255 0.999702 0.041890
0.75 1 0.75 0 1 0 0 0 255 255 0.958110 0.041890
1 0.999999 1 -0 1 4e-06 255 0 0 255 0.999702 0.000298
1 1 0.75 -0 1 4e-06 0 0 255 255 0.999702 0.041890
0.75 1 0.75 -0 1 4e-06 0 0 255 255 0.958110 0.041890
0.5 1 -0.25 0 1 0 0 0 255 255 0.916518 0.208259
0.75 1 -0.25 0 1 0 0 0 255 255 0.958110 0.208259
0.5 1 -0.5 0 1 0 0 0 255 255 0.916518 0.249851
0.25 1 -0.5 0 1 0 0 0 255 255 0.874925 0.249851
0.25 1 -0.25 0 1 0 0 0 255 255 0.874925 0.208259
0 1 -0.5 0 1 0 0 0 255 255 0.833333 0.249851
0 1 -0.25 0 1 0 0 0 255 255 0.833333 0.208259
0 1 -0.75 0 1 0 0 0 255 255 0.833333 0.291443
0.25 1 -0.75 0 1 0 0 0 255 255 0.874925 0.291443
0 1 -1 0 1 0 211 255 0 255 0.833333 0.333035
-0.5 1 -0.75 0 1 0 0 0 255 255 0.750149 0.291443
-0.5 1 -1 0 1 0 211 255 0 255 0.750149 0.333035
-0.75 1 -1 0 1 0 211 255 0 255 0.708557 0.333035
-0.75 1 -0.75 0 1 0 0 0 255 255 0.708557 0.291443
-0.5 1 -0.5 0 1 0 0 0 255 255 0.750149 0.249851
-1 1 -1 0 1 0 255 0 0 255 0.666965 0.333035
-0.25 1 -0.5 0 1 0 0 0 255 255 0.791741 0.249851
-0.25 1 -0.75 0 1 0 0 0 255 255 0.791741 0.291443
-0.25 1 -1 0 1 0 211 255 0 255 0.791741 0.333035
-0.25 1 -0.25 0 1 0 0 0 255 255 0.791741 0.208259
0.5 1 -0.75 0 1 0 0 0 255 255 0.916518 0.291443
0.5 1 -1 0 1 0 211 255 0 255 0.916518 0.333035
0.25 1 -1 0 1 0 211 255 0 255 0.874926 0.333035
0.75 1 -0.5 0 1 0 0 0 255 255 0.958110 0.249851
0.75 1 -0.75 0 1 0 0 0 255 255 0.958110 0.291443
1 1 -0.5 0 1 0 211 255 0 255 0.999702 0.249851
1 1 -0.75 0 1 0 211 255 0 255 0.999702 0.291443
1 1 -1 0 1 0 255 0 0 255 0.999702 0.333035
0.75 1 -1 0 1 0 211 255 0 255 0.958110 0.333035
1 1 -0.25 0 1 0 211 255 0 255 0.999702 0.208259
0.25 1 0.75 -0 1 0 0 0 255 255 0.874925 0.041890
0 1 0.5 -0 1 0 0 0 255 255 0.833333 0.083482
0 1 0.75 -0 1 0 0 0 255 255 0.833333 0.041890
0.25 1 1 0 1 -0 211 255 0 255 0.874925 0.000298
0.5 1 1 -0 1 0 211 255 0 255 0.916518 0.000298
0 1 1 -0 1 0 211 255 0 255 0.833333 0.000298
0.5 1 0.75 0 1 -0 0 0 255 255 0.916518 0.041890
0.25 1 0.5 -0 1 0 0 0 255 255 0.874925 0.083482
0 1 0.25 -0 1 0 0 0 255 255 0.833333 0.125074
0.75 1 1 0 1 -0 0 0 255 255 0.958110 0.000298
1 0.999999 1 4e-06 1 0 255 0 0 255 0.999702 0.000298
0.75 1 0.75 4e-06 1 0 0 0 255 255 0.958110 0.041890
0.75 1 1 4e-06 1 0 0 0 255 255 0.958110 0.000298
-0.25 1 0.25 0 1 -0 0 0 255 255 0.791741 0.125074
-0.25 1 0 -0 1 0 0 0 255 255 0.791741 0.166667
-0.5 1 0 0 1 -0 0 0 255 255 0.750149 0.166667
-0.5 1 0.25 -0 1 0 0 0 255 255 0.750149 0.125074
-0.25 1 0.5 0 1 -0 0 0 255 255 0.791741 0.083482
-0.5 1 0.5 -0 1 0 0 0 255 255 0.750149 0.083482
-0.25 1 0.75 0 1 -0 0 0 255 255 0.791741 0.041890
-0.75 1 0.25 0 1 -0 0 0 255 255 0.708557 0.125074
-0.75 1 0 -0 1 0 0 0 255 255 0.708557 0.166667
-1 1 0 0 1 -0 211 255 0 255 0.666965 0.166667
-0.75 1 0.75 -0 1 0 0 0 255 255 0.708557 0.041890
-1 1 0.5 -0 1 0 211 255 0 255 0.666964 0.083482
-1 1 0.75 -0 1 0 211 255 0 255 0.666964 0.041890
-0.75 1 1 0 1 -0 211 255 0 255 0.708557 0.000298
-0.5 1 1 -0 1 0 211 255 0 255 0.750149 0.000298
-1 1 1 -0 1 0 255 0 0 255 0.666964 0.000298
-0.5 1 0.75 0 1 -0 0 0 255 255 0.750149 0.041890
-0.75 1 0.5 -0 1 0 0 0 255 255 0.708557 0.083482
-1 1 0.25 -0 1 0 211 255 0 255 0.666964 0.125074
-0.25 1 1 0 1 -0 211 255 0 255 0.791741 0.000298
-0.75 1 -0.25 -0 1 0 0 0 255 255 0.708557 0.208259
-1 1 -0.5 -0 1 0 211 255 0 255 0.666965 0.249851
-1 1 -0.25 -0 1 0 211 255 0 255 0.666965 0.208259
-0.5 1 -0.25 0 1 -0 0 0 255 255 0.750149 0.208259
-0.75 1 -0.5 -0 1 0 0 0 255 255 0.708557 0.249851
-1 1 -0.75 -0 1 0 211 255 0 255 0.666965 0.291443
-1 -0.5 -0.25 -1 -0 -0 135 255 0 255 0.083482 0.541593
-1 -0.5 0 -1 -0 -0 0 0 255 255 0.083482 0.500001
-1 -0.25 0 -1 -0 -0 0 0 255 255 0.125074 0.500001
-1 -0.25 -0.25 -1 0 0 0 0 255 255 0.125074 0.541593
-1 -0.5 -0.5 -1 -0 -0 0 0 255 255 0.083482 0.583185
-1 0 0 -1 -0 -0 0 0 255 255 0.166666 0.500001
-1 -0.75 -0.5 -1 0 0 0 0 255 255 0.041890 0.583185
-1 -0.75 -0.5 -1 -0 -0 0 0 255 255 0.666964 0.754891
-1 -0.75 -0.25 -1 -0 -0 255 0 0 255 0.708557 0.754891
-1 -0.5 -0.25 -1 -0 -0 255 0 0 255 0.708557 0.796484
-1 -0.5 0 -1 0 0 0 0 255 255 0.750149 0.796484
-1 -0.75 -0.25 -1 0 0 135 255 0 255 0.416816 0.708557
-1 -0.75 -0.5 -1 0 0 0 0 255 255 0.375224 0.708557
-1 -1 -0.5 -1 0 0 211 255 0 255 0.375224 0.666965
-1 -1 -0.25 -1 -0 -0 211 255 0 255 0.416816 0.666965
-1 -1 0 -1 -0 -0 211 255 0 255 0.458408 0.666965
-1 -0.75 0 -1 -0 -0 0 0 255 255 0.458408 0.708557
-1 -0.5 0 -1 -0 -0 0 0 255 255 0.458408 0.750149
-1 -1 -0.75 -1 -0 -0 255 0 0 255 0.333631 0.666965
-1 -0.75 -0.5 -1 0 0 0 0 255 255 0.792336 0.683293
-1 -0.75 -0.75 -1 0 0 255 0 0 255 0.750744 0.683293
-1 -1 -0.75 -1 0 0 255 0 0 255 0.750744 0.641701
-1 -1 -1 -1 -0 -0 255 0 0 255 0.709152 0.641701
-1 -0.75 -0.75 -1 -0 -0 135 255 0 255 0.041890 0.624777
-1 -0.5 0.25 -1 0 0 135 255 0 255 0.500000 0.750149
-1 -0.75 0.25 -1 -0 -0 0 0 255 255 0.500000 0.708557
-1 -0.5 0.5 -1 0 0 0 0 255 255 0.541592 0.750149
-1 -0.25 0.5 -1 -0 -0 0 0 255 255 0.541592 0.791741
-1 -0.25 0.5 -1 0 0 0 0 255 255 0.809564 0.375224
-1 -0.25 0.25 -1 0 0 255 0 0 255 0.767972 0.375224
-1 -0.5 0.25 -1 0 0 255 0 0 255 0.767972 0.333632
-1 -0.5 0 -1 -0 -0 0 0 255 255 0.726380 0.333632
-1 -0.25 0.25 -1 -0 -0 135 255 0 255 0.125074 0.458408
-1 -0.25 0.5 -1 -0 -0 0 0 255 255 0.125074 0.416816
-1 0 0.5 -1 -0 -0 0 0 255 255 0.166666 0.416816
-1 0 0.25 -1 0 0 0 0 255 255 0.166666 0.458408
-1 0 0.75 -1 0 0 135 255 0 255 0.166666 0.375224
-1 -0.25 0.5 -1 -0 -0 0 0 255 255 0.709152 0.599514
-1 -0.25 0.75 -1 -0 -0 255 0 0 255 0.750744 0.599514
-1 0 0.75 -1 -0 -0 255 0 0 255 0.750744 0.641106
-1 0 1 -1 0 0 255 0 0 255 0.792336 0.641106
-1 -0.25 0.75 -1 0 0 135 255 0 255 0.583184 0.791741
-1 0.5 0.75 -1 -0 -0 0 0 255 255 0.249851 0.375224
-1 0.5 1 -1 -0 -0 211 255 0 255 0.249851 0.333632
-1 0.75 1 -1 -0 -0 211 255 0 255 0.291443 0.333632
-1 0.75 0.75 -1 0 0 0 0 255 255 0.291443 0.375224
-1 0.5 0.5 -1 -0 -0 0 0 255 255 0.249851 0.416816
-1 1 1 -1 -0 -0 255 0 0 255 0.333035 0.333632
-1 0.25 0.5 -1 0 0 0 0 255 255 0.208259 0.416816
-1 0.25 0.75 -1 -0 -0 0 0 255 255 0.208258 0.375224
-1 0 1 -1 -0 -0 0 254 29 255 0.166666 0.333632
-1 0.25 1 -1 -0 -0 211 255 0 255 0.208258 0.333632
-1 0.25 0.25 -1 0 0 0 0 255 255 0.208259 0.458408
-1 -0.5 0.75 -1 -0 -0 0 0 255 255 0.583184 0.750149
-1 -0.5 1 -1 -0 -0 211 255 0 255 0.624777 0.750149
-1 -0.25 1 -1 -0 -0 211 255 0 255 0.624777 0.791741
-1 0 1 -1 -0 -0 0 254 29 255 0.624777 0.833333
-1 -0.75 0.5 -1 0 0 0 0 255 255 0.541592 0.708557
-1 -0.75 0.75 -1 -0 -0 0 0 255 255 0.583184 0.708557
-1 -1 0.5 -1 0 0 211 255 0 255 0.541592 0.666965
-1 -1 0.75 -1 -0 -0 211 255 0 255 0.583184 0.666965
-1 -1 1 -1 -0 -0 255 0 0 255 0.624777 0.666965
-1 -0.75 1 -1 -0 -0 211 255 0 255 0.624777 0.708557
-1 -1 0.25 -1 -0 -0 211 255 0 255 0.500000 0.666965
-1 -0.25 -0.75 -1 -0 0 0 0 255 255 0.125074 0.624777
-1 0 -0.5 -1 -0 0 0 0 255 255 0.166666 0.583185
-1 0 -0.75 -1 -0 0 0 0 255 255 0.166666 0.624777
-1 -0.25 -1 -1 0 0 211 255 0 255 0.125074 0.666369
-1 -0.5 -1 -1 -0 0 211 255 0 255 0.083482 0.666369
-1 0 -1 -1 -0 0 211 255 0 255 0.166666 0.666369
-1 -0.5 -0.75 -1 0 0 0 0 255 255 0.083482 0.624777
-1 -0.25 -0.5 -1 -0 0 0 0 255 255 0.125074 0.583185
-1 0 -0.25 -1 -0 0 0 0 255 255 0.166666 0.541593
-1 -0.75 -1 -1 0 0 211 255 0 255 0.041890 0.666369
-1 -1 -1 -1 -0 0 255 0 0 255 0.000298 0.666369
-1 0.25 -0.25 -1 0 0 0 0 255 255 0.208259 0.541593
-1 0.25 0 -1 -0 0 0 0 255 255 0.208259 0.500000
-1 0.5 0 -1 0 0 0 0 255 255 0.249851 0.500000
-1 0.5 -0.25 -1 -0 0 0 0 255 255 0.249851 0.541593
-1 0.25 -0.5 -1 0 0 0 0 255 255 0.208259 0.583185
-1 0.5 -0.5 -1 -0 0 0 0 255 255 0.249851 0.583185
-1 0.25 -0.75 -1 0 0 0 0 255 255 0.208259 0.624777
-1 0.75 -0.25 -1 0 0 0 0 255 255 0.291443 0.541593
-1 0.75 0 -1 -0 0 0 0 255 255 0.291443 0.500000
-1 1 0 -1 0 0 211 255 0 255 0.333035 0.500000
-1 0.75 -0.75 -1 -0 0 0 0 255 255 0.291443 0.624777
-1 1 -0.5 -1 -0 0 211 255 0 255 0.333035 0.583185
-1 1 -0.75 -1 -0 0 211 255 0 255 0.333035 0.624777
-1 0.75 -1 -1 0 0 211 255 0 255 0.291443 0.666369
-1 0.5 -1 -1 -0 0 211 255 0 255 0.249851 0.666369
-1 1 -1 -1 -0 0 255 0 0 255 0.333035 0.666369
-1 0.5 -0.75 -1 0 0 0 0 255 255 0.249851 0.624777
-1 0.75 -0.5 -1 -0 0 0 0 255 255 0.291443 0.583185
-1 1 -0.25 -1 -0 0 211 255 0 255 0.333035 0.541593
-1 0.25 -1 -1 0 0 211 255 0 255 0.208259 0.666369
-1 0.75 0.25 -1 -0 0 0 0 255 255 0.291443 0.458408
-1 1 0.5 -1 -0 0 211 255 0 255 0.333035 0.416816
-1 1 0.25 -1 -0 0 211 255 0 255 0.333035 0.458408
-1 0.5 0.25 -1 0 0 0 0 255 255 0.249851 0.458408
-1 0.75 0.5 -1 -0 0 0 0 255 255 0.291443 0.416816
-1 1 0.75 -1 -0 0 211 255 0 255 0.333035 0.375224
0.5 -1 -0.75 0 -1 0 0 0 255 255 0.249851 0.708557
0.5 -1 -0.5 0 -1 0 0 0 255 255 0.249851 0.750149
0.25 -1 -0.75 0 -1 0 0 0 255 255 0.208259 0.708557
0.25 -1 -1 -0 -1 0 211 255 0 255 0.208259 0.666965
0.5 -1 -1 0 -1 0 211 255 0 255 0.249851 0.666965
0 -1 -1 0 -1 0 211 255 0 255 0.166666 0.666965
0.75 -1 -0.75 -0 -1 0 0 0 255 255 0.291443 0.708557
0.75 -1 -0.5 0 -1 0 0 0 255 255 0.291443 0.750149
1 -1 -0.5 -0 -1 0 211 255 0 255 0.333035 0.750149
1 -1 -0.25 0 -1 0 211 255 0 255 0.333035 0.791741
1 -1 0 0 -1 0 211 255 0 255 0.333035 0.833333
0.75 -1 -0.25 0 -1 0 0 0 255 255 0.291443 0.791741
1 -1 -0.75 0 -1 0 211 255 0 255 0.333035 0.708557
0.75 -1 -1 -0 -1 0 211 255 0 255 0.291443 0.666965
1 -1 -1 0 -1 0 255 0 0 255 0.333035 0.666965
0.5 -1 -0.25 -0 -1 0 0 0 255 255 0.249851 0.791741
0.75 -1 0 0 -1 0 0 0 255 255 0.291443 0.833333
0.5 -1 0 -0 -1 0 0 0 255 255 0.249851 0.833333
0.25 -1 -0.25 0 -1 0 0 0 255 255 0.208259 0.791741
0.25 -1 -0.5 -0 -1 0 0 0 255 255 0.208259 0.750149
0 -1 -0.5 0 -1 0 0 0 255 255 0.166666 0.750149
0 -1 -0.75 -0 -1 0 0 0 255 255 0.166666 0.708557
0 -1 -0.25 -0 -1 0 0 0 255 255 0.166666 0.791741
0.25 -1 0 0 -1 0 0 0 255 255 0.208259 0.833333
0 -1 0 -0 -1 0 0 0 255 255 0.166667 0.833333
-0.5 -1 -0.75 0 -1 0 0 0 255 255 0.083482 0.708557
-0.5 -1 -0.5 0 -1 0 0 0 255 255 0.083482 0.750149
-0.75 -1 -0.75 0 -1 0 0 0 255 255 0.041890 0.708557
-0.75 -1 -1 -0 -1 0 211 255 0 255 0.041890 0.666965
-0.5 -1 -1 0 -1 0 211 255 0 255 0.083482 0.666965
-1 -1 -1 0 -1 0 255 0 0 255 0.000298 0.666965
-0.25 -1 -0.75 -0 -1 0 0 0 255 255 0.125074 0.708557
-0.25 -1 -0.5 0 -1 0 0 0 255 255 0.125074 0.750149
-0.25 -1 -0.25 0 -1 0 0 0 255 255 0.125074 0.791741
-0.25 -1 -1 -0 -1 0 211 255 0 255 0.125074 0.666965
0.5 -1 0.25 0 -1 0 0 0 255 255 0.249851 0.874926
0.499999 -1 0.5 0 -1 0 0 0 255 255 0.249851 0.916518
0.25 -1 0.25 0 -1 0 0 0 255 255 0.208259 0.874926
0.75 -1 0.25 -0 -1 0 0 0 255 255 0.291443 0.874926
0.75 -1 0.5 0 -1 0 0 0 255 255 0.291443 0.916518
1 -1 0.5 -0 -1 0 211 255 0 255 0.333035 0.916518
0.999999 -1 0.75 0 -1 -4e-06 211 255 0 255 0.333035 0.958110
0.999999 -1.000001 1 0 -1 -4e-06 0 0 255 255 0.333035 0.999702
0.749999 -1 0.75 0 -1 -4e-06 0 0 255 255 0.291443 0.958110
0.749999 -1 0.75 -0 -1 0 0 0 255 255 0.291443 0.958110
0.999999 -1 0.75 -0 -1 0 211 255 0 255 0.333035 0.958110
1 -1 0.25 0 -1 0 211 255 0 255 0.333035 0.874926
0.25 -1 0.5 0 -1 0 0 206 255 255 0.208259 0.916518
0 -1 0.5 0 -1 0 0 0 255 255 0.166667 0.916518
0 -1 0.25 0 -1 0 0 0 255 255 0.166667 0.874926
0.499999 -1 0.75 -0 -1 -0 135 255 0 255 0.249851 0.958110
0.499999 -1 0.75 0 -1 0 255 0 0 255 0.755790 0.569508
0.249999 -1 0.75 0 -1 0 255 0 0 255 0.726380 0.540098
0.25 -1 0.5 0 -1 0 255 0 0 255 0.755790 0.510688
0.249999 -1 0.75 -0 -1 -0 135 254 0 255 0.208259 0.958110
0.499999 -1 1 -0 -1 -0 255 0 0 255 0.726380 0.598918
0.249999 -1 1 0 -1 0 211 255 0 255 0.208259 0.999702
-1e-06 -1 1 0 -1 0 0 255 29 255 0.166666 0.999702
0 -1 0.75 0 -1 0 135 254 0 255 0.166667 0.958110
0.499999 -1 1 0 -1 0 0 254 29 255 0.249851 0.999702
0.749999 -1 1 0 -1 0 211 255 0 255 0.291443 0.999702
0.999999 -1.000001 1 -4e-06 -1 0 0 0 255 255 0.333035 0.999702
0.749999 -1 1 -4e-06 -1 0 211 255 0 255 0.291443 0.999702
0.749999 -1 0.75 -4e-06 -1 0 0 0 255 255 0.291443 0.958110
-0.25 -1 0.5 -0 -1 -0 255 0 0 255 0.125074 0.916518
0 -1 0.75 0 -1 0 255 0 0 255 0.784605 0.724886
-0.25 -1 0.75 0 -1 0 255 0 0 255 0.755195 0.754296
-0.25 -1 0.5 0 -1 0 255 0 0 255 0.725785 0.724886
-0.5 -1 0.5 -0 -1 -0 255 0 0 255 0.696374 0.754296
-1e-06 -1 1 -0 -1 -0 255 0 0 255 0.814015 0.754296
-0.5 -1 0.25 0 -1 0 255 0 0 255 0.666964 0.724886
-0.5 -1 0.25 -0 -1 -0 0 206 255 255 0.083482 0.874926
-0.25 -1 0.25 -0 -1 -0 0 0 255 255 0.125074 0.874926
-0.5 -1 0 0 -1 0 0 0 255 255 0.083482 0.833334
-0.25 -1 0 -0 -1 -0 0 0 255 255 0.125074 0.833333
-0.75 -1 0 -0 -1 -0 0 0 255 255 0.041890 0.833334
-0.75 -1 0.25 0 -1 0 0 0 255 255 0.041890 0.874926
-1 -1 0 -0 -1 -0 211 255 0 255 0.000298 0.833334
-0.5 -1 0.5 -0 -1 -0 135 255 0 255 0.083482 0.916518
-0.75 -1 -0.5 0 -1 0 0 0 255 255 0.041890 0.750149
-1 -1 -0.5 0 -1 0 211 255 0 255 0.000298 0.750149
-1 -1 -0.75 0 -1 0 211 255 0 255 0.000298 0.708557
-0.5 -1 -0.25 -0 -1 -0 0 0 255 255 0.083482 0.791741
-0.75 -1 -0.25 0 -1 0 0 0 255 255 0.041890 0.791741
-1 -1 -0.25 0 -1 0 211 255 0 255 0.000298 0.791741
-0.75 -1 0.5 0 -1 0 0 0 255 255 0.041890 0.916518
-1 -1 0.5 0 -1 0 211 255 0 255 0.000298 0.916518
-1 -1 0.25 0 -1 0 211 255 0 255 0.000298 0.874926
-0.5 -1 0.75 -0 -1 -0 0 0 255 255 0.083482 0.958110
-0.75 -1 0.75 0 -1 0 0 0 255 255 0.041890 0.958110
-0.5 -1 1 -0 -1 -0 211 255 0 255 0.083482 0.999702
-0.75 -1 1 0 -1 0 211 255 0 255 0.041890 0.999702
-1 -1 1 0 -1 0 255 0 0 255 0.000298 0.999702
-1 -1 0.75 0 -1 0 211 255 0 255 0.000298 0.958110
-0.250001 -1 1 0 -1 0 211 255 0 255 0.125074 0.999702
-0.25 -1 0.75 -0 -1 -0 255 0 0 255 0.125074 0.958110
1 0.5 -0.75 1 -0 0 0 0 255 255 0.583184 0.041890
1 0.5 -0.5 1 -0 0 0 0 255 255 0.583184 0.083482
1 0.25 -0.75 1 -0 0 0 0 255 255 0.541592 0.041890
1 0.25 -1 1 0 -0 211 255 0 255 0.541592 0.000298
1 0.5 -1 1 -0 0 211 255 0 255 0.583184 0.000298
1 0 -1 1 -0 0 211 255 0 255 0.500000 0.000298
1 0.75 -0.75 1 0 -0 0 0 255 255 0.624777 0.041890
1 0.75 -0.5 1 -0 0 0 0 255 255 0.624777 0.083482
1 1 -0.5 1 0 -0 211 255 0 255 0.666369 0.083482
1 1 -0.25 1 -0 0 211 255 0 255 0.666369 0.125074
1 1 0 1 -0 0 211 255 0 255 0.666369 0.166666
1 0.75 -0.25 1 -0 0 0 0 255 255 0.624777 0.125074
1 1 -0.75 1 -0 0 211 255 0 255 0.666369 0.041890
1 0.75 -1 1 0 -0 211 255 0 255 0.624777 0.000298
1 1 -1 1 -0 0 255 0 0 255 0.666369 0.000298
1 0.5 -0.25 1 0 -0 0 0 255 255 0.583184 0.125074
1 0.75 0 1 -0 0 0 0 255 255 0.624777 0.166666
1 0.5 0 1 0 -0 0 0 255 255 0.583184 0.166666
1 0.25 -0.25 1 -0 0 0 0 255 255 0.541592 0.125074
1 0.25 -0.5 1 0 -0 0 0 255 255 0.541592 0.083482
1 0 -0.5 1 -0 0 0 0 255 255 0.500000 0.083482
1 0 -0.75 1 0 -0 0 0 255 255 0.500000 0.041890
1 0 -0.25 1 0 -0 0 0 255 255 0.500000 0.125074
1 0.25 0 1 -0 0 0 0 255 255 0.541592 0.166667
1 0 0 1 0 -0 0 0 255 255 0.500000 0.166667
1 -0.5 -0.75 1 -0 0 0 0 255 255 0.416816 0.041890
1 -0.5 -0.5 1 -0 0 0 206 255 255 0.416816 0.083482
1 -0.75 -0.75 1 -0 0 0 0 255 255 0.375224 0.041890
1 -0.75 -1 1 0 -0 211 255 0 255 0.375224 0.000298
1 -0.5 -1 1 -0 0 211 255 0 255 0.416816 0.000298
1 -1 -1 1 -0 0 255 0 0 255 0.333631 0.000298
1 -0.25 -0.75 1 0 -0 0 0 255 255 0.458408 0.041890
1 -0.25 -0.5 1 -0 0 0 0 255 255 0.458408 0.083482
1 -0.25 -0.25 1 -0 0 135 255 0 255 0.458408 0.125074
1 -0.25 -1 1 0 -0 211 255 0 255 0.458408 0.000298
1 0.5 0.25 1 -0 0 0 0 255 255 0.583185 0.208259
1 0.5 0.5 1 -0 0 0 206 255 255 0.583185 0.249851
1 0.25 0.25 1 -0 0 0 0 255 255 0.541592 0.208259
1 0.75 0.25 1 0 -0 0 0 255 255 0.624777 0.208259
1 0.75 0.5 1 -0 0 0 0 255 255 0.624777 0.249851
1 1 0.5 1 0 -0 211 255 0 255 0.666369 0.249851
1 1 0.75 1 -0 0 211 255 0 255 0.666369 0.291443
1 0.999999 1 1 -0 0 255 0 0 255 0.666369 0.333035
1 0.75 0.75 1 -0 0 135 255 0 255 0.624777 0.291443
1 1 0.25 1 -0 0 211 255 0 255 0.666369 0.208259
1 0.25 0.5 1 0 0 255 0 0 255 0.725785 0.392452
1 0 0.5 1 0 0 211 255 0 255 0.696374 0.363042
1 0 0.25 1 0 0 255 0 0 255 0.725784 0.333632
1 0 0.25 1 0 0 0 206 255 255 0.500000 0.208259
1 0.25 0.5 1 0 0 135 255 0 255 0.541592 0.249851
1 0.5 0.75 1 0 0 135 255 0 255 0.583185 0.291443
1 0.25 0.75 1 0 0 255 0 0 255 0.541592 0.291443
1 0.25 0.75 1 0 0 135 255 0 255 0.696375 0.421862
1 0.499999 1 1 0 0 255 0 0 255 0.583184 0.333035
1 0.249999 1 1 0 -0 255 0 0 255 0.541592 0.333035
1 -1e-06 1 1 0 -0 211 255 0 255 0.500000 0.333035
1 0 0.75 1 0 -0 135 255 0 255 0.500000 0.291443
1 0 0.75 1 0 0 255 0 0 255 0.666964 0.392452
1 0.249999 1 1 0 0 255 0 0 255 0.666964 0.451272
1 0.499999 1 1 0 -0 255 0 0 255 0.696375 0.480682
1 0.749999 1 1 0 -0 0 255 29 255 0.624777 0.333035
1 0.5 0.75 1 0 0 255 0 0 255 0.625372 0.696375
1 0.75 0.75 1 0 0 255 0 0 255 0.654782 0.725785
1 0.749999 1 1 0 0 255 0 0 255 0.625372 0.755195
1 0.5 0.5 1 0 0 255 0 0 255 0.654782 0.666965
1 -0.25 0.5 1 0 0 0 0 255 255 0.458408 0.249851
1 0 0.5 1 0 0 211 255 0 255 0.500000 0.249851
1 -0.25 0.75 1 0 0 0 0 255 255 0.458408 0.291443
1 -0.5 0.5 1 0 0 0 206 255 255 0.416816 0.249851
1 -0.5 0.25 1 0 0 211 255 0 255 0.416816 0.208259
1 -0.25 0.25 1 0 0 0 206 255 255 0.458408 0.208259
1 -0.5 0 1 0 0 0 0 255 255 0.416816 0.166667
1 -0.25 0 1 0 0 211 255 0 255 0.458408 0.166667
1 -0.5 0 1 0 0 0 0 255 255 0.666964 0.540098
1 -0.25 0 1 0 0 211 255 0 255 0.696374 0.569508
1 -0.25 0.25 1 0 0 255 0 0 255 0.666964 0.598918
1 -0.75 0 1 0 0 211 255 0 255 0.666964 0.641106
1 -0.5 0 1 0 0 0 0 255 255 0.708557 0.641106
1 -0.5 0.25 1 0 0 211 255 0 255 0.708557 0.682698
1 -0.75 0.25 1 0 0 255 0 0 255 0.666964 0.682698
1 -1 0 1 0 0 211 255 0 255 0.333631 0.166667
1 -0.75 0 1 0 0 211 255 0 255 0.375224 0.166667
1 -0.75 0.25 1 0 0 135 255 0 255 0.375224 0.208259
1 -0.5 0.5 1 0 0 255 0 0 255 0.708557 0.724290
1 -0.75 -0.5 1 0 0 255 0 0 255 0.767972 0.683889
1 -1 -0.5 1 0 0 255 0 0 255 0.738562 0.713299
1 -1 -0.75 1 0 0 255 0 0 255 0.709152 0.683889
1 -1 -0.75 1 0 0 255 0 0 255 0.333631 0.041890
1 -0.75 -0.5 1 0 0 135 255 0 255 0.375224 0.083482
1 -0.5 -0.25 1 0 0 211 255 0 255 0.416816 0.125074
1 -0.75 -0.25 1 0 0 0 0 255 255 0.375224 0.125074
1 -0.75 -0.25 1 0 0 0 0 255 255 0.797382 0.713299
1 -1 -0.25 1 0 0 211 255 0 255 0.333631 0.125074
1 -0.75 -0.25 1 0 0 0 0 255 255 0.666964 0.599514
1 -1 -0.5 1 0 0 255 0 0 255 0.333631 0.083482
1 -0.5 -0.25 1 0 0 211 255 0 255 0.696374 0.510688
1 -0.25 -0.25 1 0 0 255 0 0 255 0.725785 0.540098
1 -0.5 -0.5 1 0 0 255 0 0 255 0.725785 0.481278
1 -0.75 0.5 1 0 0 0 0 255 255 0.375224 0.249851
1 -1 0.5 1 0 0 255 0 0 255 0.333632 0.249851
1 -1 0.25 1 0 0 211 255 0 255 0.333632 0.208259
1 -0.5 0.75 1 0 0 0 0 255 255 0.416816 0.291443
1 -0.750001 0.75 1 0 -0 135 255 0 255 0.375224 0.291443
1 -0.500001 1 1 0 0 211 255 0 255 0.416816 0.333035
1 -0.750001 1 1 -4e-06 -0 255 0 0 255 0.767972 0.459004
0.999999 -1.000001 1 1 -4e-06 -0 0 0 255 255 0.726380 0.459004
0.999999 -1 0.75 1 -4e-06 -0 211 255 0 255 0.726380 0.417411
1 -0.750001 0.75 1 -4e-06 0 255 0 0 255 0.767972 0.417411
1 -0.750001 1 1 0 0 255 0 0 255 0.375224 0.333035
1 -0.750001 0.75 1 -4e-06 4e-06 255 0 0 255 0.767972 0.417411
0.999999 -1 0.75 1 -4e-06 4e-06 211 255 0 255 0.726380 0.417411
1 -1 0.5 1 -4e-06 4e-06 0 0 255 255 0.726380 0.375819
1 -0.250001 1 1 0 -0 211 255 0 255 0.458408 0.333035
0.75 0.5 1 0 -0 1 0 0 255 255 0.041890 0.083483
0.5 0.5 1 0 -0 1 0 0 255 255 0.083482 0.083483
0.75 0.25 1 0 -0 1 0 0 255 255 0.041890 0.125075
1 0.249999 1 0 0 1 211 255 0 255 0.000298 0.125075
1 0.499999 1 -0 -0 1 211 255 0 255 0.000298 0.083483
1 -1e-06 1 -0 -0 1 211 255 0 255 0.000298 0.166667
0.75 0.75 1 0 0 1 0 0 255 255 0.041890 0.041891
0.5 0.75 1 0 -0 1 0 0 255 255 0.083482 0.041890
0.5 1 1 0 0 1 211 255 0 255 0.083482 0.000298
0.25 1 1 0 -0 1 211 255 0 255 0.125074 0.000298
0 1 1 0 -0 1 211 255 0 255 0.166666 0.000298
0.25 0.75 1 0 -0 1 0 0 255 255 0.125074 0.041890
0.75 1 1 0 -0 1 211 255 0 255 0.041890 0.000298
1 0.749999 1 0 0 1 211 255 0 255 0.000298 0.041891
1 0.999999 1 -0 -0 1 255 0 0 255 0.000298 0.000299
0.25 0.5 1 0 0 1 0 0 255 255 0.125074 0.083483
0 0.75 1 0 -0 1 0 0 255 255 0.166667 0.041890
0 0.5 1 0 0 1 0 0 255 255 0.166667 0.083482
0.25 0.25 1 0 -0 1 0 0 255 255 0.125075 0.125075
0.5 0.25 1 0 0 1 0 0 255 255 0.083482 0.125075
0.5 0 1 0 -0 1 0 0 255 255 0.083482 0.166667
0.75 0 1 0 0 1 0 0 255 255 0.041890 0.166667
0.25 0 1 0 0 1 0 0 255 255 0.125075 0.166667
0 0.25 1 0 -0 1 0 0 255 255 0.166667 0.125075
0 0 1 0 0 1 0 0 255 255 0.166667 0.166667
0.75 -0.500001 1 -0 -0 1 0 0 255 255 0.041890 0.249852
0.5 -0.5 1 -0 -0 1 0 0 255 255 0.083483 0.249851
0.749999 -0.750001 1 -0 -0 1 0 0 255 255 0.041891 0.291444
1 -0.750001 1 0 0 1 211 255 0 255 0.000298 0.291444
1 -0.500001 1 0 -0 1 211 255 0 255 0.000298 0.249852
0.999999 -1.000001 1 0 -0 1 255 0 0 255 0.000299 0.333036
0.75 -0.250001 1 0 0 1 0 0 255 255 0.041890 0.208259
0.5 -0.25 1 -0 -0 1 0 0 255 255 0.083483 0.208259
0.25 -0.25 1 0 -0 1 0 0 255 255 0.125075 0.208259
1 -0.250001 1 0 0 1 211 255 0 255 0.000298 0.208260
-0.25 0.5 1 0 -0 1 0 0 255 255 0.208259 0.083482
-0.5 0.5 1 0 -0 1 0 0 255 255 0.249851 0.083482
-0.25 0.25 1 0 -0 1 0 0 255 255 0.208259 0.125075
-0.25 0.75 1 0 0 1 0 0 255 255 0.208259 0.041890
-0.5 0.75 1 0 -0 1 0 0 255 255 0.249851 0.041890
-0.5 1 1 0 0 1 211 255 0 255 0.249851 0.000298
-0.75 1 1 0 -0 1 211 255 0 255 0.291443 0.000298
-1 1 1 0 -0 1 255 0 0 255 0.333035 0.000298
-0.75 0.75 1 0 -0 1 0 0 255 255 0.291443 0.041890
-0.25 1 1 0 -0 1 211 255 0 255 0.208259 0.000298
-0.5 0.25 1 0 -0 1 0 0 255 255 0.249851 0.125074
-0.5 0 1 0 -0 1 0 0 255 255 0.249851 0.166667
-0.25 0 1 0 -0 1 0 0 255 255 0.208259 0.166667
-0.75 0.5 1 -0 0 1 0 0 255 255 0.291443 0.083482
-0.75 0.25 1 0 -0 1 0 0 255 255 0.291443 0.125074
-1 0.5 1 -0 0 1 211 255 0 255 0.333035 0.083482
-1 0.25 1 0 -0 1 211 255 0 255 0.333035 0.125074
-1 0 1 0 -0 1 211 255 0 255 0.333035 0.166666
-0.75 0 1 0 -0 1 0 0 255 255 0.291443 0.166667
-1 0.75 1 0 -0 1 211 255 0 255 0.333035 0.041890
-0.5 -0.25 1 -0 0 1 0 0 255 255 0.249851 0.208259
-0.75 -0.25 1 0 -0 1 0 0 255 255 0.291443 0.208259
-0.5 -0.5 1 -0 0 1 0 0 255 255 0.249851 0.249851
-0.25 -0.5 1 0 -0 1 0 0 255 255 0.208259 0.249851
-0.25 -0.25 1 -0 0 1 0 0 255 255 0.208259 0.208259
0 -0.5 1 0 -0 1 0 0 255 255 0.166667 0.249851
0 -0.25 1 -0 0 1 0 0 255 255 0.166667 0.208259
0 -0.75 1 -0 0 1 0 0 255 255 0.166667 0.291443
-0.25 -0.75 1 0 -0 1 0 0 255 255 0.208259 0.291443
-1e-06 -1 1 -0 0 1 211 255 0 255 0.166667 0.333036
0.499999 -0.75 1 0 -0 1 0 0 255 255 0.083483 0.291444
0.499999 -1 1 0 -0 1 211 255 0 255 0.083483 0.333036
0.749999 -1 1 0 -0 1 211 255 0 255 0.041891 0.333036
0.25 -0.5 1 -0 0 1 0 0 255 255 0.125075 0.249851
0.249999 -0.75 1 0 -0 1 0 0 255 255 0.125075 0.291443
0.249999 -1 1 0 -0 1 211 255 0 255 0.125075 0.333036
-0.5 -0.75 1 0 -0 1 0 0 255 255 0.249851 0.291443
-0.5 -1 1 0 -0 1 211 255 0 255 0.249852 0.333035
-0.250001 -1 1 0 -0 1 211 255 0 255 0.208260 0.333035
-0.75 -0.5 1 -0 0 1 0 0 255 255 0.291444 0.249851
-0.75 -0.75 1 0 -0 1 0 0 255 255 0.291444 0.291443
-1 -0.5 1 -0 0 1 211 255 0 255 0.333036 0.249851
-1 -0.75 1 0 -0 1 211 255 0 255 0.333036 0.291443
-1 -1 1 0 -0 1 255 0 0 255 0.333036 0.333035
-0.75 -1 1 0 -0 1 211 255 0 255 0.291444 0.333035
-1 -0.25 1 0 -0 1 211 255 0 255 0.333036 0.208259
0.5 0.25 -1 0 0 -1 0 0 255 255 0.583184 0.458408
0.5 0 -1 0 0 -1 0 0 255 255 0.583184 0.500000
0.25 0 -1 0 0 -1 0 0 255 255 0.541592 0.500000
0.25 0.25 -1 -0 -0 -1 0 0 255 255 0.541592 0.458408
0.5 0.5 -1 0 0 -1 0 0 255 255 0.583184 0.416816
0 0 -1 0 0 -1 0 0 255 255 0.500000 0.500000
0.75 0.5 -1 -0 -0 -1 0 0 255 255 0.624777 0.416816
0.75 0.25 -1 0 0 -1 0 0 255 255 0.624777 0.458408
1 0.5 -1 -0 -0 -1 211 255 0 255 0.666369 0.416816
1 0.25 -1 0 0 -1 211 255 0 255 0.666369 0.458408
1 0 -1 0 0 -1 211 255 0 255 0.666369 0.500000
0.75 0 -1 0 0 -1 0 0 255 255 0.624777 0.500000
1 0.75 -1 0 0 -1 211 255 0 255 0.666369 0.375224
0.75 0.75 -1 -0 -0 -1 0 0 255 255 0.624777 0.375224
1 1 -1 0 0 -1 255 0 0 255 0.666369 0.333632
0.5 -0.25 -1 -0 -0 -1 0 0 255 255 0.583184 0.541592
0.75 -0.25 -1 0 0 -1 0 0 255 255 0.624777 0.541592
0.5 -0.5 -1 -0 -0 -1 0 0 255 255 0.583184 0.583185
0.25 -0.5 -1 0 0 -1 0 0 255 255 0.541592 0.583185
0.25 -0.25 -1 -0 -0 -1 0 0 255 255 0.541592 0.541593
0 -0.5 -1 0 0 -1 0 0 255 255 0.500000 0.583185
0 -0.25 -1 -0 -0 -1 0 0 255 255 0.500000 0.541593
0 -0.75 -1 -0 -0 -1 0 0 255 255 0.500000 0.624777
0.25 -0.75 -1 0 0 -1 0 0 255 255 0.541592 0.624777
0 -1 -1 -0 -0 -1 211 255 0 255 0.500000 0.666369
-0.5 -0.75 -1 0 0 -1 0 0 255 255 0.416816 0.624777
-0.5 -1 -1 0 0 -1 211 255 0 255 0.416816 0.666369
-0.75 -1 -1 0 0 -1 211 255 0 255 0.375224 0.666369
-0.75 -0.75 -1 -0 -0 -1 0 0 255 255 0.375224 0.624777
-0.5 -0.5 -1 0 0 -1 0 0 255 255 0.416816 0.583185
-1 -1 -1 0 0 -1 255 0 0 255 0.333631 0.666369
-0.25 -0.5 -1 -0 -0 -1 0 0 255 255 0.458408 0.583185
-0.25 -0.75 -1 0 0 -1 0 0 255 255 0.458408 0.624777
-0.25 -1 -1 0 0 -1 211 255 0 255 0.458408 0.666369
-0.25 -0.25 -1 -0 -0 -1 0 0 255 255 0.458408 0.541593
0.5 -0.75 -1 0 0 -1 0 0 255 255 0.583184 0.624777
0.5 -1 -1 0 0 -1 211 255 0 255 0.583185 0.666369
0.25 -1 -1 0 0 -1 211 255 0 255 0.541592 0.666369
0.75 -0.5 -1 -0 -0 -1 0 0 255 255 0.624777 0.583185
0.75 -0.75 -1 0 0 -1 0 0 255 255 0.624777 0.624777
1 -0.5 -1 -0 -0 -1 211 255 0 255 0.666369 0.583185
1 -0.75 -1 0 0 -1 211 255 0 255 0.666369 0.624777
1 -1 -1 0 0 -1 255 0 0 255 0.666369 0.666369
0.75 -1 -1 0 0 -1 211 255 0 255 0.624777 0.666369
1 -0.25 -1 0 0 -1 211 255 0 255 0.666369 0.541592
0.25 0.75 -1 0 0 -1 0 0 255 255 0.541592 0.375224
0 0.5 -1 0 0 -1 0 0 255 255 0.500000 0.416816
0 0.75 -1 0 0 -1 0 0 255 255 0.500000 0.375224
0.25 1 -1 -0 0 -1 211 255 0 255 0.541592 0.333632
0.5 1 -1 0 0 -1 211 255 0 255 0.583184 0.333632
0 1 -1 0 0 -1 211 255 0 255 0.500000 0.333632
0.5 0.75 -1 -0 0 -1 0 0 255 255 0.583184 0.375224
0.25 0.5 -1 0 0 -1 0 0 255 255 0.541592 0.416816
0 0.25 -1 0 0 -1 0 0 255 255 0.500000 0.458408
0.75 1 -1 -0 0 -1 211 255 0 255 0.624777 0.333632
-0.25 0.25 -1 -0 0 -1 0 0 255 255 0.458408 0.458408
-0.25 0 -1 0 0 -1 0 0 255 255 0.458408 0.500000
-0.5 0 -1 -0 0 -1 0 0 255 255 0.416816 0.500000
-0.5 0.25 -1 0 0 -1 0 0 255 255 0.416816 0.458408
-0.25 0.5 -1 -0 0 -1 0 0 255 255 0.458408 0.416816
-0.5 0.5 -1 0 0 -1 0 0 255 255 0.416816 0.416816
-0.25 0.75 -1 -0 0 -1 0 0 255 255 0.458408 0.375224
-0.75 0.25 -1 -0 0 -1 0 0 255 255 0.375224 0.458408
-0.75 0 -1 0 0 -1 0 0 255 255 0.375224 0.500000
-1 0 -1 -0 0 -1 211 255 0 255 0.333631 0.500000
-0.75 0.75 -1 0 0 -1 0 0 255 255 0.375224 0.375224
-1 0.5 -1 0 0 -1 211 255 0 255 0.333631 0.416816
-1 0.75 -1 0 0 -1 211 255 0 255 0.333631 0.375224
-0.75 1 -1 -0 0 -1 211 255 0 255 0.375224 0.333632
-0.5 1 -1 0 0 -1 211 255 0 255 0.416816 0.333632
-1 1 -1 0 0 -1 255 0 0 255 0.333631 0.333632
-0.5 0.75 -1 -0 0 -1 0 0 255 255 0.416816 0.375224
-0.75 0.5 -1 0 0 -1 0 0 255 255 0.375224 0.416816
-1 0.25 -1 0 0 -1 211 255 0 255 0.333631 0.458408
-0.25 1 -1 -0 0 -1 211 255 0 255 0.458408 0.333632
-0.75 -0.25 -1 0 0 -1 0 0 255 255 0.375224 0.541593
-1 -0.5 -1 0 0 -1 211 255 0 255 0.333631 0.583185
-1 -0.25 -1 0 0 -1 211 255 0 255 0.333631 0.541593
-0.5 -0.25 -1 -0 0 -1 0 0 255 255 0.416816 0.541593
-0.75 -0.5 -1 0 0 -1 0 0 255 255 0.375224 0.583185
-1 -0.75 -1 0 0 -1 211 255 0 255 0.333631 0.624777
3 0 1 2 
3 3 0 2 
3 4 0 3 
3 3 2 5 
3 0 4 6 
3 7 0 6 
3 1 0 7 
3 7 6 8 
3 9 10 11 
3 11 7 9 
3 8 9 7 
3 7 11 1 
3 12 8 6 
3 6 13 12 
3 14 15 16 
3 13 6 4 
3 17 1 11 
3 11 18 17 
3 19 17 18 
3 18 11 10 
3 17 19 20 
3 20 21 17 
3 1 17 21 
3 21 20 22 
3 23 5 2 
3 2 21 23 
3 22 23 21 
3 21 2 1 
3 24 22 20 
3 20 25 24 
3 26 24 25 
3 25 20 19 
3 27 28 29 
3 29 30 27 
3 31 27 30 
3 30 29 32 
3 27 31 33 
3 33 34 27 
3 28 27 34 
3 34 33 22 
3 24 26 35 
3 35 34 24 
3 22 24 34 
3 34 35 28 
3 23 22 33 
3 33 36 23 
3 5 23 36 
3 36 33 31 
3 37 38 39 
3 39 25 37 
3 19 37 25 
3 25 39 26 
3 37 19 40 
3 40 41 37 
3 38 37 41 
3 41 40 42 
3 43 44 45 
3 45 41 43 
3 42 43 41 
3 41 45 38 
3 46 42 40 
3 40 18 46 
3 10 46 18 
3 18 40 19 
3 47 48 49 
3 49 50 47 
3 51 47 50 
3 50 49 52 
3 47 51 53 
3 53 54 47 
3 48 47 54 
3 54 53 4 
3 3 5 55 
3 55 54 3 
3 4 3 54 
3 54 55 48 
3 13 4 53 
3 53 56 13 
3 57 58 59 
3 56 53 51 
3 60 48 55 
3 55 61 60 
3 62 60 61 
3 61 55 5 
3 60 62 63 
3 63 64 60 
3 48 60 64 
3 64 63 65 
3 66 52 49 
3 49 64 66 
3 65 66 64 
3 64 49 48 
3 67 65 63 
3 63 68 67 
3 69 67 68 
3 68 63 62 
3 70 71 72 
3 72 73 70 
3 74 70 73 
3 73 72 75 
3 70 74 76 
3 76 77 70 
3 71 70 77 
3 77 76 65 
3 67 69 78 
3 78 77 67 
3 65 67 77 
3 77 78 71 
3 66 65 76 
3 76 79 66 
3 52 66 79 
3 79 76 74 
3 80 81 82 
3 82 68 80 
3 62 80 68 
3 68 82 69 
3 80 62 83 
3 83 84 80 
3 81 80 84 
3 84 83 31 
3 30 32 85 
3 85 84 30 
3 31 30 84 
3 84 85 81 
3 36 31 83 
3 83 61 36 
3 5 36 61 
3 61 83 62 
3 86 87 88 
3 88 89 86 
3 90 86 89 
3 89 88 91 
3 86 90 92 
3 93 94 95 
3 96 95 94 
3 97 98 99 
3 100 101 102 
3 102 97 100 
3 99 100 97 
3 97 102 103 
3 104 99 98 
3 105 106 107 
3 108 107 106 
3 109 92 90 
3 110 103 102 
3 102 111 110 
3 112 110 111 
3 111 102 101 
3 110 112 113 
3 114 115 116 
3 117 116 115 
3 118 119 120 
3 121 91 88 
3 88 118 121 
3 120 121 118 
3 118 88 87 
3 122 120 119 
3 123 124 125 
3 126 125 124 
3 127 113 112 
3 128 129 130 
3 130 131 128 
3 132 128 131 
3 131 130 133 
3 128 132 134 
3 134 135 128 
3 129 128 135 
3 135 134 120 
3 122 136 137 
3 137 135 122 
3 120 122 135 
3 135 137 129 
3 121 120 134 
3 134 138 121 
3 91 121 138 
3 138 134 132 
3 139 140 141 
3 141 127 139 
3 112 139 127 
3 127 141 142 
3 139 112 143 
3 143 144 139 
3 140 139 144 
3 144 143 145 
3 146 147 148 
3 148 144 146 
3 145 146 144 
3 144 148 140 
3 149 145 143 
3 143 111 149 
3 101 149 111 
3 111 143 112 
3 150 151 152 
3 152 153 150 
3 154 150 153 
3 153 152 155 
3 150 154 156 
3 156 157 150 
3 151 150 157 
3 157 156 90 
3 89 91 158 
3 158 157 89 
3 90 89 157 
3 157 158 151 
3 109 90 156 
3 156 159 109 
3 160 109 159 
3 159 156 154 
3 161 151 158 
3 158 162 161 
3 163 161 162 
3 162 158 91 
3 161 163 164 
3 164 165 161 
3 151 161 165 
3 165 164 166 
3 167 155 152 
3 152 165 167 
3 166 167 165 
3 165 152 151 
3 168 166 164 
3 164 169 168 
3 170 168 169 
3 169 164 163 
3 171 172 173 
3 173 174 171 
3 175 171 174 
3 174 173 176 
3 171 175 177 
3 177 178 171 
3 172 171 178 
3 178 177 166 
3 168 170 179 
3 179 178 168 
3 166 168 178 
3 178 179 172 
3 167 166 177 
3 177 180 167 
3 155 167 180 
3 180 177 175 
3 181 182 183 
3 183 169 181 
3 163 181 169 
3 169 183 170 
3 181 163 184 
3 184 185 181 
3 182 181 185 
3 185 184 132 
3 131 133 186 
3 186 185 131 
3 132 131 185 
3 185 186 182 
3 138 132 184 
3 184 162 138 
3 91 138 162 
3 162 184 163 
3 187 188 189 
3 189 190 187 
3 191 187 190 
3 190 189 192 
3 187 191 193 
3 193 194 187 
3 188 187 194 
3 194 193 195 
3 196 197 198 
3 198 194 196 
3 195 196 194 
3 194 198 188 
3 199 195 193 
3 193 200 199 
3 201 199 200 
3 200 193 191 
3 202 188 198 
3 198 203 202 
3 204 202 203 
3 203 198 197 
3 202 204 205 
3 205 206 202 
3 188 202 206 
3 206 205 207 
3 208 192 189 
3 189 206 208 
3 207 208 206 
3 206 189 188 
3 209 207 205 
3 205 210 209 
3 211 209 210 
3 210 205 204 
3 212 213 214 
3 214 215 212 
3 216 212 215 
3 215 214 217 
3 212 216 218 
3 218 219 212 
3 213 212 219 
3 219 218 207 
3 209 211 220 
3 220 219 209 
3 207 209 219 
3 219 220 213 
3 208 207 218 
3 218 221 208 
3 192 208 221 
3 221 218 216 
3 222 223 224 
3 224 210 222 
3 204 222 210 
3 210 224 211 
3 222 204 225 
3 225 226 222 
3 223 222 226 
3 226 225 227 
3 228 229 230 
3 231 226 232 
3 227 232 226 
3 226 231 223 
3 233 227 225 
3 225 203 233 
3 197 233 203 
3 203 225 204 
3 234 235 236 
3 236 224 234 
3 223 234 224 
3 224 236 211 
3 234 223 237 
3 238 239 240 
3 235 234 241 
3 239 238 242 
3 243 244 245 
3 245 241 243 
3 246 243 241 
3 241 245 235 
3 247 246 237 
3 237 231 247 
3 248 249 250 
3 231 237 223 
3 251 235 245 
3 252 253 254 
3 255 254 253 
3 253 252 256 
3 254 255 257 
3 258 259 251 
3 235 251 259 
3 259 258 260 
3 261 211 236 
3 236 259 261 
3 260 261 259 
3 259 236 235 
3 262 260 258 
3 258 263 262 
3 264 262 263 
3 263 258 265 
3 266 267 268 
3 268 214 266 
3 213 266 214 
3 214 268 217 
3 266 213 269 
3 269 270 266 
3 267 266 270 
3 270 269 260 
3 262 264 271 
3 271 270 262 
3 260 262 270 
3 270 271 267 
3 261 260 269 
3 269 220 261 
3 211 261 220 
3 220 269 213 
3 272 273 274 
3 274 263 272 
3 265 272 263 
3 263 274 264 
3 272 265 275 
3 275 276 272 
3 273 272 276 
3 276 275 277 
3 278 279 280 
3 280 276 278 
3 277 278 276 
3 276 280 273 
3 281 277 275 
3 275 282 281 
3 244 281 282 
3 282 275 265 
3 283 284 285 
3 285 286 283 
3 287 283 286 
3 286 285 288 
3 283 287 289 
3 289 290 283 
3 284 283 290 
3 290 289 291 
3 292 293 294 
3 294 290 292 
3 291 292 290 
3 290 294 284 
3 295 291 289 
3 289 296 295 
3 297 295 296 
3 296 289 287 
3 298 284 294 
3 294 299 298 
3 300 298 299 
3 299 294 293 
3 298 300 301 
3 301 302 298 
3 284 298 302 
3 302 301 303 
3 304 288 285 
3 285 302 304 
3 303 304 302 
3 302 285 284 
3 305 303 301 
3 301 306 305 
3 307 305 306 
3 306 301 300 
3 308 309 310 
3 310 311 308 
3 312 308 311 
3 311 310 313 
3 308 312 314 
3 314 315 308 
3 309 308 315 
3 315 314 303 
3 305 307 316 
3 316 315 305 
3 303 305 315 
3 315 316 309 
3 304 303 314 
3 314 317 304 
3 288 304 317 
3 317 314 312 
3 318 319 320 
3 320 306 318 
3 300 318 306 
3 306 320 307 
3 318 300 321 
3 321 322 318 
3 319 318 322 
3 322 321 323 
3 324 325 326 
3 326 322 324 
3 323 324 322 
3 322 326 319 
3 327 323 321 
3 321 299 327 
3 293 327 299 
3 299 321 300 
3 328 329 330 
3 331 320 332 
3 319 332 320 
3 320 331 307 
3 332 319 333 
3 333 334 332 
3 329 328 335 
3 334 333 336 
3 337 338 339 
3 340 335 341 
3 342 341 335 
3 335 340 329 
3 343 336 333 
3 344 345 346 
3 325 343 326 
3 345 344 347 
3 348 349 339 
3 339 350 348 
3 351 348 350 
3 350 339 338 
3 348 351 352 
3 352 353 348 
3 349 348 353 
3 353 352 354 
3 355 307 331 
3 331 353 355 
3 356 357 358 
3 353 331 349 
3 359 360 361 
3 361 362 359 
3 363 364 365 
3 362 361 366 
3 367 368 369 
3 370 310 371 
3 309 371 310 
3 310 370 313 
3 371 309 372 
3 372 373 371 
3 368 367 374 
3 373 372 354 
3 364 363 375 
3 375 373 364 
3 360 359 376 
3 373 375 377 
3 357 356 378 
3 378 379 357 
3 307 355 316 
3 379 378 380 
3 381 382 383 
3 383 365 381 
3 351 381 365 
3 365 383 363 
3 381 351 384 
3 384 385 381 
3 382 381 385 
3 385 384 386 
3 387 388 389 
3 389 390 387 
3 386 391 385 
3 392 393 394 
3 395 386 384 
3 384 350 395 
3 338 395 350 
3 350 384 351 
3 396 397 398 
3 398 399 396 
3 400 396 399 
3 399 398 401 
3 396 400 402 
3 402 403 396 
3 397 396 403 
3 403 402 404 
3 405 406 407 
3 407 403 405 
3 404 405 403 
3 403 407 397 
3 408 404 402 
3 402 409 408 
3 410 408 409 
3 409 402 400 
3 411 397 407 
3 407 412 411 
3 413 411 412 
3 412 407 406 
3 411 413 414 
3 414 415 411 
3 397 411 415 
3 415 414 416 
3 417 401 398 
3 398 415 417 
3 416 417 415 
3 415 398 397 
3 418 416 414 
3 414 419 418 
3 420 418 419 
3 419 414 413 
3 421 422 423 
3 423 424 421 
3 425 421 424 
3 424 423 426 
3 421 425 427 
3 427 428 421 
3 422 421 428 
3 428 427 416 
3 418 420 429 
3 429 428 418 
3 416 418 428 
3 428 429 422 
3 417 416 427 
3 427 430 417 
3 401 417 430 
3 430 427 425 
3 431 432 433 
3 433 419 431 
3 413 431 419 
3 419 433 420 
3 431 413 434 
3 434 435 431 
3 432 431 435 
3 435 434 436 
3 437 438 439 
3 439 435 437 
3 436 437 435 
3 435 439 432 
3 440 436 434 
3 434 412 440 
3 406 440 412 
3 412 434 413 
3 441 442 443 
3 443 433 441 
3 432 441 433 
3 433 443 420 
3 441 432 444 
3 444 445 441 
3 442 441 445 
3 445 444 446 
3 447 448 449 
3 449 445 447 
3 446 447 445 
3 445 449 442 
3 450 446 444 
3 444 439 450 
3 438 450 439 
3 439 444 432 
3 451 442 449 
3 449 452 451 
3 453 451 452 
3 452 449 448 
3 451 453 454 
3 454 455 451 
3 442 451 455 
3 455 454 456 
3 457 420 443 
3 443 455 457 
3 456 457 455 
3 455 443 442 
3 458 456 454 
3 454 459 458 
3 460 458 459 
3 459 454 453 
3 461 462 463 
3 463 423 461 
3 422 461 423 
3 423 463 426 
3 461 422 464 
3 464 465 461 
3 462 461 465 
3 465 464 456 
3 458 460 466 
3 466 465 458 
3 456 458 465 
3 465 466 462 
3 457 456 464 
3 464 429 457 
3 420 457 429 
3 429 464 422 
3 467 468 469 
3 469 459 467 
3 453 467 459 
3 459 469 460 
3 467 453 470 
3 470 471 467 
3 468 467 471 
3 471 470 472 
3 473 474 475 
3 475 471 473 
3 472 473 471 
3 471 475 468 
3 476 472 470 
3 470 452 476 
3 448 476 452 
3 452 470 453 
3 477 478 479 
3 479 480 477 
3 481 477 480 
3 480 479 482 
3 477 481 483 
3 483 484 477 
3 478 477 484 
3 484 483 485 
3 486 487 488 
3 488 484 486 
3 485 486 484 
3 484 488 478 
3 489 485 483 
3 483 490 489 
3 491 489 490 
3 490 483 481 
3 492 478 488 
3 488 493 492 
3 494 492 493 
3 493 488 487 
3 492 494 495 
3 495 496 492 
3 478 492 496 
3 496 495 497 
3 498 482 479 
3 479 496 498 
3 497 498 496 
3 496 479 478 
3 499 497 495 
3 495 500 499 
3 501 499 500 
3 500 495 494 
3 502 503 504 
3 504 505 502 
3 506 502 505 
3 505 504 507 
3 502 506 508 
3 508 509 502 
3 503 502 509 
3 509 508 497 
3 499 501 510 
3 510 509 499 
3 497 499 509 
3 509 510 503 
3 498 497 508 
3 508 511 498 
3 482 498 511 
3 511 508 506 
3 512 513 514 
3 514 500 512 
3 494 512 500 
3 500 514 501 
3 512 494 515 
3 515 516 512 
3 513 512 516 
3 516 515 517 
3 518 519 520 
3 520 516 518 
3 517 518 516 
3 516 520 513 
3 521 517 515 
3 515 493 521 
3 487 521 493 
3 493 515 494 
3 522 523 524 
3 524 525 522 
3 526 522 525 
3 525 524 527 
3 522 526 528 
3 528 529 522 
3 523 522 529 
3 529 528 481 
3 480 482 530 
3 530 529 480 
3 481 480 529 
3 529 530 523 
3 490 481 528 
3 528 531 490 
3 491 490 531 
3 531 528 526 
3 532 523 530 
3 530 533 532 
3 534 532 533 
3 533 530 482 
3 532 534 535 
3 535 536 532 
3 523 532 536 
3 536 535 537 
3 538 527 524 
3 524 536 538 
3 537 538 536 
3 536 524 523 
3 539 537 535 
3 535 540 539 
3 541 539 540 
3 540 535 534 
3 542 543 544 
3 544 545 542 
3 546 542 545 
3 545 544 547 
3 542 546 548 
3 548 549 542 
3 543 542 549 
3 549 548 537 
3 539 541 550 
3 550 549 539 
3 537 539 549 
3 549 550 543 
3 538 537 548 
3 548 551 538 
3 527 538 551 
3 551 548 546 
3 552 553 554 
3 554 540 552 
3 534 552 540 
3 540 554 541 
3 552 534 555 
3 555 556 552 
3 553 552 556 
3 556 555 506 
3 505 507 557 
3 557 556 505 
3 506 505 556 
3 556 557 553 
3 511 506 555 
3 555 533 511 
3 482 511 533 
3 533 555 534 
