ply
format ascii 1.0
comment VCGLIB generated
element vertex 284
property float x
property float y
property float z
property uchar red
property uchar green
property uchar blue
property uchar alpha
element face 564
property list uchar int vertex_indices
end_header
-1.523163 64.52 8.13 0 0 127 255 
-6.853149 65.27998 -0 0 0 127 255 
31.74684 100.08 0 0 0 127 255 
39.36685 98.80998 6.1 0 0 127 255 
64.76685 116.0799 0 0 0 127 255 
68.07684 113.04 3.56 31 31 131 255 
96.26685 118.37 -0 76 76 138 255 
98.04684 114.05 2.06233 18 18 129 255 
114.2968 113.54 -0 99 99 142 255 
96.77684 54.86998 6.517095 0 0 127 255 
96.26685 72.90001 0 0 0 127 255 
106.9368 48.00999 0 58 58 135 255 
57.14685 62.73997 11.68 0 0 127 255 
72.13684 84.08 6.633346 10 10 128 255 
82.80685 95.75999 4.012878 0 0 127 255 
-173.3962 -11.11204 -0 0 0 127 255 
-179.3596 -18.51365 7.62 0 0 127 255 
-184.7376 -21.88988 -0 0 0 127 255 
-154.6222 3.132233 -0 0 0 127 255 
-158.9449 -2.880463 13.97 0 0 127 255 
-132.6646 15.83762 5.33 0 0 127 255 
-91.58301 40.96202 -0 0 0 127 255 
-93.10382 34.97737 18.29 0 0 127 255 
-131.827 13.72096 13.97 0 0 127 255 
-47.35538 57.93788 -0 0 0 127 255 
-48.55493 52.67918 22.35 0 0 127 255 
-4.573151 49.53999 24.64 0 0 127 255 
53.59685 48.00999 26.67 0 0 127 255 
109.7268 36.06999 20.32 0 0 127 255 
164.5977 24.16576 11.68 9 9 128 255 
164.3093 28.40697 0 0 0 127 255 
205.3376 15.53769 0 11 11 128 255 
204.6789 3.807053 14.73 28 28 131 255 
229.9593 6.926483 0 115 115 144 255 
230.8715 -8.854462 11.94 0 0 127 255 
253.4436 -2.321793 0 30 30 131 255 
255.2799 -16.97031 7.87 0 0 127 255 
272.0586 -11.21724 0 0 0 127 255 
274.1086 -20.24117 9.65 49 49 134 255 
284.51 -24.59681 0 70 70 137 255 
281.0518 -26.84312 9.375875 0 0 127 255 
-134.8842 7.603134 22.35 0 0 127 255 
-118.7851 4.991013 32.77 0 0 127 255 
-87.93243 20.52956 31.70523 0 0 127 255 
-49.60266 33.91145 32 7 7 130 255 
-4.573151 31.75999 35.81 0 0 127 255 
45.97684 30.48997 34.04 0 0 127 255 
106.4268 22.60997 28.45 0 0 127 255 
164.2561 16.56985 18.29 0 0 127 255 
-131.4974 -6.947311 36.58 0 0 127 255 
-141.4966 -4.591209 31.75 0 0 127 255 
-149.6792 -11.04578 27.43 0 0 127 255 
-167.2928 -26.66084 20.83 0 0 127 255 
-182.6414 -39.65448 10.16 0 0 127 255 
-130.0458 -17.01208 35.81 0 0 127 255 
-140.5706 -11.80264 30.99 0 0 127 255 
-185.0463 -47.10091 13.97 0 0 127 255 
-179.009 -57.28585 14.99 0 0 127 255 
-207.502 -78.11794 7.37 0 0 127 255 
-212.3748 -75.41514 7.37 0 0 127 255 
-217.5038 -78.81209 4.06 0 0 127 255 
-218.6436 -77.19215 -0 0 0 127 255 
-192.4962 -47.75626 -0 0 0 127 255 
-189.5161 -45.70598 5.08 2 2 127 255 
-151.5819 -24.64492 30.48 0 0 127 255 
-143.5855 -17.41225 30.73 0 0 127 255 
-150.7972 -27.51979 30.73 0 0 127 255 
-164.5894 -30.95947 26.42 0 0 127 255 
-161.7422 -36.54444 25.91 9 9 128 255 
-175.5276 -61.39826 16.26 0 0 127 255 
-201.2574 -79.65031 8.38 0 0 127 255 
-156.0699 -47.98344 27.04717 0 0 127 255 
-145.9485 -33.53195 34.54 0 0 127 255 
-123.8187 -43.26791 34.8 0 0 127 255 
-154.0007 -53.75459 27.43 0 0 127 255 
-140.4437 -28.63096 34.8 0 0 127 255 
-137.6539 -19.69126 34.54 0 0 127 255 
-124.8745 -31.45993 38.61 0 0 127 255 
-174.4335 -66.58667 18.29 0 0 127 255 
-197.6923 -82.75619 10.92 0 0 127 255 
-151.7325 -75.6075 17.02 96 96 141 255 
-115.5171 -69.19439 22.35 0 0 127 255 
-169.2661 -74.92321 10.16 0 0 127 255 
-174.22 -70.17667 17.27 0 0 127 255 
-85.39764 -50.28358 43.18 0 0 127 255 
-84.45435 -60.30612 35.05 0 0 127 255 
-120.4849 -30.80115 40.39 0 0 127 255 
-79.86481 -20.40913 49.28 0 0 127 255 
-113.95 -13.50288 40.13 0 0 127 255 
-111.8611 -0.681808 36.58 0 0 127 255 
-81.19751 3.403015 42.67 0 0 127 255 
-49.00662 10.41141 46.23 0 0 127 255 
-39.19025 -15.64094 51.05 0 0 127 255 
-0.003174 6.529009 48.01 0 0 127 255 
5.076843 -18.78999 51.05 0 0 127 255 
48.00685 5.089981 46.23 0 0 127 255 
50.03685 -18.53999 49.02 0 0 127 255 
103.8868 -1.010025 43.94 48 48 134 255 
103.3768 -27.93001 44.7 0 0 127 255 
162.7132 -4.686424 33.02 0 0 127 255 
161.4177 -29.19355 28.45 0 0 127 255 
201.1734 -11.47618 23.37 0 0 127 255 
199.0702 -36.01879 21.84 0 0 127 255 
228.4615 -21.14399 13.97 0 0 127 255 
226.7552 -36.33063 14.22 0 0 127 255 
248.4611 -25.74372 9.91 0 0 127 255 
244.9365 -38.09956 10.67 0 0 127 255 
272.5167 -27.82566 18.29 0 0 127 255 
-46.20822 -47.93071 41.15 0 0 127 255 
6.606842 -52.83 37.59 150 150 150 255 
47.2407 -51.72131 38.1 150 150 150 255 
98.29458 -53.79565 30.99 150 150 150 255 
159.8931 -50.21146 17.27 150 150 150 255 
198.8694 -48.77163 9.65 111 111 144 255 
225.2173 -46.75587 7.11 13 13 129 255 
255.5049 -47.8636 5.59 0 0 127 255 
269.553 -46.43898 14.40978 0 0 127 255 
-59.38708 -63.49491 73.66 70 70 137 255 
-60.37555 -65.28902 71.37 67 67 137 255 
-36.43719 -57.34738 64.52 0 0 127 255 
-14.16031 -68.66568 77.22 150 150 150 255 
-28.56253 -69.72392 80.77 67 67 137 255 
-48.60242 -66.94185 80.01 85 85 140 255 
3.046844 -66.03001 0 0 0 127 255 
-44.98117 -63.83695 -0 150 150 150 255 
95.54893 -61.46616 0 150 150 150 255 
160.2626 -54.94367 0 150 150 150 255 
223.6033 -50.94653 0 73 73 138 255 
256.8151 -49.49007 0 0 0 127 255 
-111.1731 -72.10411 -0 150 150 150 255 
-75.90302 -67.89029 -0 150 150 150 255 
-144.1214 -79.04956 -0 150 150 150 255 
-166.6438 -77.1781 -0 150 150 150 255 
-192.4884 -87.51345 -0 150 150 150 255 
-195.4128 -85.99606 7.87 0 0 127 255 
-211.8871 -94.05957 -0 21 21 130 255 
-209.4261 -91.97621 4.57 0 0 127 255 
335.2148 -50.58827 86.61 150 150 150 255 
299.0243 -50.85016 73.15 150 150 150 255 
325.8626 -47.88381 63.25 150 150 150 255 
303.0631 -37.0138 9.65 0 0 127 255 
283.3859 -33.64085 20.90496 0 0 127 255 
294.8642 -33.79744 0 48 48 134 255 
314.2872 -37.56836 5.84 0 0 127 255 
305.1856 -37.30477 0 90 90 140 255 
273.2394 -36.25331 24.13 0 0 127 255 
-215.4139 -84.3341 3.81 0 0 127 255 
-215.9014 -84.04272 -0 0 0 127 255 
-214.0606 -89.54407 4.83 0 0 127 255 
-215.8983 -90.16402 -0 0 0 127 255 
-28.41852 -70.57317 79.25 61 61 136 255 
-48.336 -68.8114 78.23 124 124 146 255 
105.6668 93.72997 -0 0 0 127 255 
46.22684 -64.34258 0 150 150 150 255 
198.1769 -53.31513 0 150 150 150 255 
271.7986 -47.91888 0 150 150 150 255 
299.2194 -53.4238 73.15 150 150 150 255 
282.1614 -48.75603 52.32 150 150 150 255 
282.0105 -44.36404 52.32 150 150 150 255 
319.4437 -42.6443 21.59 121 121 145 255 
-130.9188 18.49213 -0 0 0 127 255 
39.36685 98.80998 -6.1 0 0 127 255 
-1.523163 64.52 -8.13 0 0 127 255 
68.07684 113.04 -3.56 0 0 127 255 
98.04684 114.05 -2.06233 135 135 147 255 
96.77684 54.86998 -6.517095 0 0 127 255 
72.13684 84.08 -6.633346 0 0 127 255 
57.14685 62.73997 -11.68 0 0 127 255 
82.80685 95.75999 -4.012878 0 0 127 255 
-179.3596 -18.51365 -7.62 0 0 127 255 
-158.9449 -2.880463 -13.97 0 0 127 255 
-132.6646 15.83762 -5.33 0 0 127 255 
-131.827 13.72096 -13.97 0 0 127 255 
-93.10382 34.97737 -18.29 0 0 127 255 
-48.55493 52.67918 -22.35 0 0 127 255 
-4.573151 49.53999 -24.64 48 48 134 255 
53.59685 48.00999 -26.67 0 0 127 255 
109.7268 36.06999 -20.32 0 0 127 255 
164.5977 24.16576 -11.68 0 0 127 255 
204.6789 3.807053 -14.73 0 0 127 255 
230.8715 -8.854462 -11.94 0 0 127 255 
255.2799 -16.97031 -7.87 0 0 127 255 
274.1086 -20.24117 -9.65 45 45 133 255 
281.0518 -26.84312 -9.375875 33 33 132 255 
-134.8842 7.603134 -22.35 150 150 150 255 
-118.7851 4.991013 -32.77 0 0 127 255 
-87.93243 20.52956 -31.70523 0 0 127 255 
-49.60266 33.91145 -32 85 85 140 255 
-4.573151 31.75999 -35.81 0 0 127 255 
45.97684 30.48997 -34.04 0 0 127 255 
106.4268 22.60997 -28.45 0 0 127 255 
164.2561 16.56985 -18.29 21 21 130 255 
-141.4966 -4.591209 -31.75 0 0 127 255 
-131.4974 -6.947311 -36.58 0 0 127 255 
-149.6792 -11.04578 -27.43 0 0 127 255 
-167.2928 -26.66084 -20.83 0 0 127 255 
-182.6414 -39.65448 -10.16 0 0 127 255 
-140.5706 -11.80264 -30.99 0 0 127 255 
-130.0458 -17.01208 -35.81 0 0 127 255 
-185.0463 -47.10091 -13.97 0 0 127 255 
-212.3748 -75.41514 -7.37 0 0 127 255 
-207.502 -78.11794 -7.37 150 150 150 255 
-179.009 -57.28585 -14.99 0 0 127 255 
-189.5161 -45.70598 -5.08 0 0 127 255 
-217.5038 -78.81209 -4.06 0 0 127 255 
-150.7972 -27.51979 -30.73 0 0 127 255 
-143.5855 -17.41225 -30.73 0 0 127 255 
-151.5819 -24.64492 -30.48 0 0 127 255 
-164.5894 -30.95947 -26.42 0 0 127 255 
-161.7422 -36.54444 -25.91 0 0 127 255 
-201.2574 -79.65031 -8.38 16 16 129 255 
-175.5276 -61.39826 -16.26 0 0 127 255 
-156.0699 -47.98344 -27.04717 0 0 127 255 
-145.9485 -33.53195 -34.54 0 0 127 255 
-154.0007 -53.75459 -27.43 0 0 127 255 
-123.8187 -43.26791 -34.8 0 0 127 255 
-140.4437 -28.63096 -34.8 0 0 127 255 
-137.6539 -19.69126 -34.54 0 0 127 255 
-124.8745 -31.45993 -38.61 0 0 127 255 
-197.6923 -82.75619 -10.92 0 0 127 255 
-174.4335 -66.58667 -18.29 0 0 127 255 
-136.1284 -47.34255 -31.75 3 3 127 255 
-151.7325 -75.6075 -17.02 0 0 127 255 
-115.5171 -69.19439 -22.35 0 0 127 255 
-174.22 -70.17667 -17.27 0 0 127 255 
-169.2661 -74.92321 -10.16 0 0 127 255 
-84.45435 -60.30612 -35.05 52 52 135 255 
-85.39764 -50.28358 -43.18 0 0 127 255 
-79.86481 -20.40913 -49.28 0 0 127 255 
-120.4849 -30.80115 -40.39 0 0 127 255 
-113.95 -13.50288 -40.13 33 33 132 255 
-111.8611 -0.681808 -36.58 0 0 127 255 
-81.19751 3.403015 -42.67 0 0 127 255 
-39.19025 -15.64094 -51.05 0 0 127 255 
-49.00662 10.41141 -46.23 0 0 127 255 
5.076843 -18.78999 -51.05 150 150 150 255 
-0.003174 6.529009 -48.01 0 0 127 255 
50.03685 -18.53999 -49.02 27 27 131 255 
48.00685 5.089981 -46.23 0 0 127 255 
103.3768 -27.93001 -44.7 0 0 127 255 
103.8868 -1.010025 -43.94 0 0 127 255 
161.4177 -29.19355 -28.45 28 28 131 255 
162.7132 -4.686424 -33.02 0 0 127 255 
199.0702 -36.01879 -21.84 36 36 132 255 
201.1734 -11.47618 -23.37 0 0 127 255 
226.7552 -36.33063 -14.22 0 0 127 255 
228.4615 -21.14399 -13.97 0 0 127 255 
244.9365 -38.09956 -10.67 0 0 127 255 
248.4611 -25.74372 -9.91 0 0 127 255 
272.5167 -27.82566 -18.29 0 0 127 255 
-46.20822 -47.93071 -41.15 0 0 127 255 
6.606842 -52.83 -37.59 0 0 127 255 
47.2407 -51.72131 -38.1 19 19 129 255 
98.29458 -53.79565 -30.99 136 136 147 255 
159.8931 -50.21146 -17.27 0 0 127 255 
198.8694 -48.77163 -9.65 0 0 127 255 
225.2173 -46.75587 -7.11 85 85 140 255 
255.5049 -47.8636 -5.59 31 31 131 255 
269.553 -46.43898 -14.40978 0 0 127 255 
-60.37555 -65.28902 -71.37 52 52 135 255 
-59.38708 -63.49491 -73.66 28 28 131 255 
-36.43719 -57.34738 -64.52 0 0 127 255 
-14.16031 -68.66568 -77.22 150 150 150 255 
-48.60242 -66.94185 -80.01 4 4 127 255 
-28.56253 -69.72392 -80.77 0 0 127 255 
-195.4128 -85.99606 -7.87 0 0 127 255 
-209.4261 -91.97621 -4.57 150 150 150 255 
325.8626 -47.88381 -63.25 19 19 129 255 
299.0243 -50.85016 -73.15 0 0 127 255 
335.2148 -50.58827 -86.61 150 150 150 255 
283.3859 -33.64085 -20.90496 0 0 127 255 
303.0631 -37.0138 -9.65 67 67 137 255 
314.2872 -37.56836 -5.84 141 141 148 255 
273.2394 -36.25331 -24.13 0 0 127 255 
-215.4139 -84.3341 -3.81 0 0 127 255 
-214.0606 -89.54407 -4.83 150 150 150 255 
-48.336 -68.8114 -78.23 19 19 129 255 
-28.41852 -70.57317 -79.25 150 150 150 255 
282.0105 -44.36404 -52.32 0 0 127 255 
282.1614 -48.75603 -52.32 0 0 127 255 
299.2194 -53.4238 -73.15 0 0 127 255 
319.4437 -42.6443 -21.59 82 82 139 255 
117.3468 105.42 0 13 13 129 255 
-136.1284 -47.34255 31.75 0 0 127 255 
3 3 2 1 
3 1 0 3 
3 5 4 2 
3 2 3 5 
3 6 4 5 
3 5 7 6 
3 8 6 7 
3 11 10 9 
3 12 13 3 
3 3 0 12 
3 14 5 3 
3 3 13 14 
3 7 5 14 
3 17 16 15 
3 19 18 15 
3 15 16 19 
3 21 160 20 
3 21 23 22 
3 23 21 20 
3 24 21 22 
3 22 25 24 
3 0 1 24 
3 24 25 0 
3 26 0 25 
3 27 12 0 
3 0 26 27 
3 27 28 9 
3 9 12 27 
3 11 9 28 
3 30 11 28 
3 28 29 30 
3 31 30 29 
3 29 32 31 
3 33 31 32 
3 32 34 33 
3 35 33 34 
3 34 36 35 
3 37 35 36 
3 36 38 37 
3 39 37 38 
3 38 40 39 
3 23 19 41 
3 22 23 41 
3 42 22 41 
3 42 43 22 
3 25 22 43 
3 43 44 25 
3 26 25 44 
3 44 45 26 
3 27 26 45 
3 45 46 27 
3 28 27 46 
3 46 47 28 
3 48 29 28 
3 28 47 48 
3 32 29 48 
3 50 49 42 
3 42 41 50 
3 19 51 50 
3 50 41 19 
3 52 51 19 
3 19 16 52 
3 53 52 16 
3 50 55 54 
3 54 49 50 
3 51 55 50 
3 53 56 52 
3 59 58 57 
3 57 56 59 
3 62 61 60 
3 60 63 62 
3 17 63 53 
3 53 16 17 
3 62 63 17 
3 65 51 64 
3 64 66 65 
3 51 52 67 
3 67 64 51 
3 66 64 67 
3 67 68 66 
3 57 68 67 
3 67 56 57 
3 69 57 58 
3 58 70 69 
3 71 68 57 
3 57 69 71 
3 72 66 68 
3 283 73 72 
3 72 71 74 
3 56 53 63 
3 65 66 75 
3 76 65 75 
3 54 76 75 
3 77 54 75 
3 72 77 75 
3 66 72 75 
3 69 70 79 
3 79 78 69 
3 71 69 78 
3 78 74 71 
3 283 74 80 
3 283 81 73 
3 81 283 80 
3 82 80 74 
3 74 83 82 
3 84 73 81 
3 81 85 84 
3 87 86 73 
3 73 84 87 
3 86 77 73 
3 88 54 77 
3 77 86 88 
3 89 42 49 
3 89 49 88 
3 88 49 54 
3 90 88 86 
3 86 87 90 
3 91 90 87 
3 87 92 91 
3 93 91 92 
3 92 94 93 
3 95 93 94 
3 94 96 95 
3 97 95 96 
3 96 98 97 
3 99 97 98 
3 98 100 99 
3 101 99 100 
3 100 102 101 
3 103 101 102 
3 102 104 103 
3 105 103 104 
3 104 106 105 
3 89 88 90 
3 43 89 90 
3 42 89 43 
3 44 43 90 
3 90 91 44 
3 45 44 91 
3 91 93 45 
3 46 45 93 
3 93 95 46 
3 47 46 95 
3 95 97 47 
3 48 47 97 
3 97 99 48 
3 32 48 99 
3 99 101 32 
3 34 32 101 
3 101 103 34 
3 36 34 103 
3 103 105 36 
3 107 38 36 
3 36 105 107 
3 40 38 107 
3 92 87 84 
3 84 108 92 
3 94 92 108 
3 108 109 94 
3 96 94 109 
3 109 110 96 
3 98 96 110 
3 110 111 98 
3 100 98 111 
3 111 112 100 
3 102 100 112 
3 112 113 102 
3 104 102 113 
3 113 114 104 
3 106 104 114 
3 114 115 106 
3 116 106 115 
3 117 84 85 
3 85 118 117 
3 108 84 117 
3 117 119 108 
3 121 120 119 
3 121 119 122 
3 122 119 117 
3 123 109 108 
3 108 124 123 
3 126 112 111 
3 111 125 126 
3 128 115 114 
3 114 127 128 
3 130 85 81 
3 81 129 130 
3 124 108 85 
3 85 130 124 
3 129 81 80 
3 80 131 129 
3 131 80 82 
3 82 132 131 
3 132 82 134 
3 134 133 132 
3 82 83 134 
3 136 135 133 
3 133 134 136 
3 139 138 137 
3 40 141 140 
3 140 142 40 
3 142 140 143 
3 143 144 142 
3 106 145 107 
3 107 105 106 
3 116 145 106 
3 59 56 63 
3 63 60 59 
3 61 147 146 
3 146 60 61 
3 59 60 146 
3 146 58 59 
3 74 78 83 
3 79 134 83 
3 83 78 79 
3 134 79 136 
3 148 136 79 
3 79 70 148 
3 58 146 148 
3 148 70 58 
3 149 135 136 
3 136 148 149 
3 146 147 149 
3 149 148 146 
3 55 51 65 
3 76 54 55 
3 73 77 72 
3 56 67 52 
3 65 76 55 
3 151 150 121 
3 121 122 151 
3 151 122 117 
3 117 118 151 
3 120 121 150 
3 108 119 118 
3 118 85 108 
3 119 120 150 
3 119 151 118 
3 150 151 119 
3 10 13 12 
3 12 9 10 
3 10 152 14 
3 14 13 10 
3 7 152 282 
3 125 111 110 
3 110 153 125 
3 153 110 109 
3 109 123 153 
3 127 114 113 
3 113 154 127 
3 112 126 154 
3 154 113 112 
3 115 128 155 
3 155 116 115 
3 157 156 138 
3 138 158 157 
3 157 158 145 
3 145 116 157 
3 137 138 156 
3 40 142 39 
3 116 155 144 
3 116 144 143 
3 143 159 116 
3 116 159 157 
3 157 159 139 
3 139 156 157 
3 156 139 137 
3 158 138 139 
3 139 159 158 
3 159 143 140 
3 140 158 159 
3 158 140 141 
3 158 141 145 
3 141 40 107 
3 107 145 141 
3 18 19 20 
3 20 160 18 
3 19 23 20 
3 1 2 161 
3 161 162 1 
3 2 4 163 
3 163 161 2 
3 163 4 6 
3 6 164 163 
3 164 6 8 
3 165 10 11 
3 167 162 161 
3 161 166 167 
3 161 163 168 
3 168 166 161 
3 168 163 164 
3 15 169 17 
3 15 18 170 
3 170 169 15 
3 171 160 21 
3 21 172 171 
3 172 21 173 
3 173 21 24 
3 24 174 173 
3 24 1 162 
3 162 174 24 
3 174 162 175 
3 162 167 176 
3 176 175 162 
3 176 167 165 
3 165 177 176 
3 177 165 11 
3 177 11 30 
3 30 178 177 
3 178 30 31 
3 31 179 178 
3 179 31 33 
3 33 180 179 
3 180 33 35 
3 35 181 180 
3 181 35 37 
3 37 182 181 
3 182 37 39 
3 39 183 182 
3 184 170 172 
3 173 185 184 
3 173 184 172 
3 173 186 185 
3 186 173 174 
3 174 187 186 
3 187 174 175 
3 175 188 187 
3 188 175 176 
3 176 189 188 
3 189 176 177 
3 177 190 189 
3 177 178 191 
3 191 190 177 
3 191 178 179 
3 185 193 192 
3 192 184 185 
3 192 194 170 
3 170 184 192 
3 170 194 195 
3 195 169 170 
3 169 195 196 
3 198 197 192 
3 192 193 198 
3 192 197 194 
3 195 199 196 
3 202 201 200 
3 200 199 202 
3 204 61 62 
3 62 203 204 
3 196 203 17 
3 17 169 196 
3 17 203 62 
3 207 194 206 
3 206 205 207 
3 208 195 194 
3 194 207 208 
3 208 207 205 
3 205 209 208 
3 208 209 202 
3 202 199 208 
3 201 202 211 
3 211 210 201 
3 202 209 212 
3 212 211 202 
3 209 205 213 
3 213 221 214 
3 214 212 213 
3 203 196 199 
3 216 205 206 
3 216 206 217 
3 216 217 198 
3 216 198 218 
3 216 218 213 
3 216 213 205 
3 219 210 211 
3 211 220 219 
3 220 211 212 
3 212 214 220 
3 222 214 221 
3 221 223 222 
3 223 221 215 
3 222 225 224 
3 224 214 222 
3 223 215 227 
3 227 226 223 
3 215 229 228 
3 228 227 215 
3 215 218 229 
3 218 198 230 
3 230 229 218 
3 193 230 198 
3 230 193 231 
3 185 231 193 
3 229 230 232 
3 232 228 229 
3 228 232 234 
3 234 233 228 
3 233 234 236 
3 236 235 233 
3 235 236 238 
3 238 237 235 
3 237 238 240 
3 240 239 237 
3 239 240 242 
3 242 241 239 
3 241 242 244 
3 244 243 241 
3 243 244 246 
3 246 245 243 
3 245 246 248 
3 248 247 245 
3 232 230 231 
3 232 231 186 
3 186 231 185 
3 232 186 187 
3 187 234 232 
3 234 187 188 
3 188 236 234 
3 236 188 189 
3 189 238 236 
3 238 189 190 
3 190 240 238 
3 240 190 191 
3 191 242 240 
3 242 191 179 
3 179 244 242 
3 244 179 180 
3 180 246 244 
3 246 180 181 
3 181 248 246 
3 249 248 181 
3 181 182 249 
3 249 182 183 
3 227 228 233 
3 233 250 227 
3 250 233 235 
3 235 251 250 
3 251 235 237 
3 237 252 251 
3 252 237 239 
3 239 253 252 
3 253 239 241 
3 241 254 253 
3 254 241 243 
3 243 255 254 
3 255 243 245 
3 245 256 255 
3 256 245 247 
3 247 257 256 
3 257 247 258 
3 226 227 260 
3 260 259 226 
3 260 227 250 
3 250 261 260 
3 263 260 261 
3 263 261 264 
3 264 261 262 
3 250 251 123 
3 123 124 250 
3 253 254 126 
3 126 125 253 
3 256 257 128 
3 128 127 256 
3 223 226 130 
3 130 129 223 
3 226 250 124 
3 124 130 226 
3 222 223 129 
3 129 131 222 
3 225 222 131 
3 131 132 225 
3 265 225 132 
3 132 133 265 
3 265 224 225 
3 133 135 266 
3 266 265 133 
3 269 268 267 
3 271 270 183 
3 183 142 271 
3 272 271 142 
3 142 144 272 
3 249 273 247 
3 247 248 249 
3 247 273 258 
3 203 199 200 
3 200 204 203 
3 274 147 61 
3 61 204 274 
3 274 204 200 
3 200 201 274 
3 224 220 214 
3 224 265 219 
3 219 220 224 
3 266 219 265 
3 266 275 210 
3 210 219 266 
3 275 274 201 
3 201 210 275 
3 266 135 149 
3 149 275 266 
3 149 147 274 
3 274 275 149 
3 206 194 197 
3 197 198 217 
3 213 218 215 
3 195 208 199 
3 197 217 206 
3 264 277 276 
3 276 263 264 
3 260 263 276 
3 276 259 260 
3 277 264 262 
3 259 261 250 
3 250 226 259 
3 261 276 277 
3 276 261 259 
3 262 261 277 
3 167 166 10 
3 10 165 167 
3 168 152 10 
3 10 166 168 
3 152 164 282 
3 164 152 168 
3 252 253 125 
3 125 153 252 
3 251 252 153 
3 153 123 251 
3 255 256 127 
3 127 154 255 
3 154 126 254 
3 254 255 154 
3 155 128 257 
3 257 258 155 
3 268 280 279 
3 279 278 268 
3 273 278 279 
3 279 258 273 
3 280 268 269 
3 39 142 183 
3 144 155 258 
3 258 281 272 
3 281 258 279 
3 144 258 272 
3 267 281 279 
3 279 280 267 
3 269 267 280 
3 267 268 278 
3 278 281 267 
3 271 272 281 
3 281 278 271 
3 270 271 278 
3 273 270 278 
3 249 183 270 
3 270 273 249 
3 171 170 18 
3 18 160 171 
3 171 172 170 
3 213 212 209 
3 68 71 72 
3 152 7 14 
3 7 282 8 
3 282 164 8 
3 221 213 215 
3 283 72 74 
